<svg width="11" height="10" viewBox="0 0 11 10" fill="none" xmlns="http://www.w3.org/2000/svg">
<path d="M9.13329 2.77778V4.29444H8.32217V2.77778V2.62778H8.17217H6.65551V1.81667H8.17217H8.32217V1.66667V0.15H9.13329V1.66667V1.81667H9.28329H10.8V2.62778H9.28329H9.13329V2.77778ZM3.05176 4.28329L2.97192 4.36382L3.02764 4.46259C3.23482 4.82987 3.46563 5.17846 3.72007 5.50829C3.97413 5.83762 4.24716 6.14368 4.5392 6.42638C4.81236 6.69946 5.11109 6.96048 5.43523 7.20951C5.76046 7.45936 6.11088 7.69211 6.48633 7.90784L6.58592 7.96506L6.66713 7.88384L8.22115 6.32983L10.8 6.85848V9.85H10.3666C9.2315 9.85 8.10629 9.60495 6.98991 9.11275C5.87376 8.62065 4.85881 7.91859 3.94488 7.00502C3.03088 6.09139 2.32883 5.0788 1.83713 3.9671C1.34545 2.85544 1.10032 1.72789 1.09995 0.583333C1.09995 0.583318 1.09995 0.583302 1.09995 0.583286L1.09995 0.15H4.10282L4.57991 2.74173L3.05176 4.28329Z" fill="black" stroke="#FDDA81" stroke-width="0.3"/>
</svg>
