<svg width="18" height="18" viewBox="0 0 18 18" fill="none" xmlns="http://www.w3.org/2000/svg">
<path d="M9.47086 1.46891C9.1708 1.16876 8.7638 1.00009 8.33939 1H2.60039C2.17594 1 1.76887 1.16861 1.46874 1.46874C1.16861 1.76887 1 2.17594 1 2.60039V8.33939C1.00009 8.7638 1.16876 9.1708 1.46891 9.47086L8.43381 16.4358C8.79751 16.7972 9.28941 17 9.80214 17C10.3149 17 10.8068 16.7972 11.1705 16.4358L16.4358 11.1705C16.7972 10.8068 17 10.3149 17 9.80214C17 9.28941 16.7972 8.79751 16.4358 8.43381L9.47086 1.46891Z" stroke="black" stroke-width="0.6" stroke-linecap="round" stroke-linejoin="round"/>
<path d="M5.40107 5.80142C5.62204 5.80142 5.80117 5.62229 5.80117 5.40132C5.80117 5.18035 5.62204 5.00122 5.40107 5.00122C5.1801 5.00122 5.00097 5.18035 5.00097 5.40132C5.00097 5.62229 5.1801 5.80142 5.40107 5.80142Z" fill="black" stroke="black" stroke-width="0.6" stroke-linecap="round" stroke-linejoin="round"/>
</svg>
