<svg width="18" height="18" viewBox="0 0 18 18" fill="none" xmlns="http://www.w3.org/2000/svg">
<path d="M2.42222 8.95376C1.66381 7.63215 1.29741 6.55215 1.07661 5.45774C0.750211 3.83854 1.49741 2.25693 2.73502 1.24733C3.25822 0.820927 3.85822 0.967327 4.16782 1.52173L4.86623 2.77533C5.41983 3.76894 5.69663 4.26494 5.64223 4.79134C5.58703 5.31854 5.21343 5.74735 4.46703 6.60495L2.42222 8.95376ZM2.42222 8.95376C3.95742 11.6306 6.36623 14.0418 9.04624 15.5778M9.04624 15.5778C10.3686 16.3362 11.4479 16.7026 12.5423 16.9234C14.1615 17.2498 15.7431 16.5026 16.7519 15.265C17.1791 14.7418 17.0327 14.1418 16.4783 13.8322L15.2247 13.1338C14.2311 12.5802 13.7351 12.3034 13.2087 12.3578C12.6815 12.413 12.2527 12.7866 11.3951 13.533L9.04624 15.5778Z" stroke="black" stroke-linecap="round" stroke-linejoin="round"/>
</svg>
