<svg width="19" height="16" viewBox="0 0 19 16" fill="none" xmlns="http://www.w3.org/2000/svg">
<path d="M3.08665 14.0439L1.37731 15.7533C1.12385 16.0067 0.830932 16.0649 0.498559 15.9278C0.166186 15.7907 0 15.5416 0 15.1805V1.62107C0 1.15896 0.154818 0.773419 0.464453 0.464453C0.774088 0.155486 1.15963 0.000668758 1.62107 0H16.4364C16.8978 0 17.2834 0.154818 17.593 0.464453C17.9027 0.774088 18.0571 1.15963 18.0565 1.62107V12.4239C18.0565 12.8853 17.902 13.2708 17.593 13.5805C17.2841 13.8901 16.8985 14.0446 16.4364 14.0439H3.08665ZM2.65831 13.0408H16.4364C16.5902 13.0408 16.7317 12.9766 16.8607 12.8482C16.9898 12.7198 17.054 12.5783 17.0533 12.4239V1.62007C17.0533 1.46625 16.9891 1.32481 16.8607 1.19574C16.7323 1.06667 16.5909 1.00247 16.4364 1.00314H1.62007C1.46625 1.00314 1.32481 1.06734 1.19574 1.19574C1.06667 1.32414 1.00247 1.46558 1.00314 1.62007V14.6909L2.65831 13.0408ZM4.01255 10.5329H10.0314C10.1745 10.5329 10.2939 10.4851 10.3895 10.3895C10.4851 10.2939 10.5329 10.1745 10.5329 10.0314C10.5329 9.88826 10.4851 9.76888 10.3895 9.67325C10.2939 9.57762 10.1745 9.5298 10.0314 9.5298H4.01255C3.8701 9.5298 3.75073 9.57762 3.65443 9.67325C3.55813 9.76888 3.51031 9.88826 3.51098 10.0314C3.51165 10.1745 3.55947 10.2939 3.65443 10.3895C3.74939 10.4851 3.86877 10.5329 4.01255 10.5329ZM4.01255 7.52353H14.0439C14.187 7.52353 14.3064 7.47571 14.402 7.38008C14.4977 7.28445 14.5455 7.16507 14.5455 7.02196C14.5455 6.87885 14.4977 6.75947 14.402 6.66384C14.3064 6.56821 14.187 6.52039 14.0439 6.52039H4.01255C3.8701 6.52039 3.75073 6.56821 3.65443 6.66384C3.55813 6.75947 3.51031 6.87885 3.51098 7.02196C3.51165 7.16507 3.55947 7.28445 3.65443 7.38008C3.74939 7.47571 3.86877 7.52353 4.01255 7.52353ZM4.01255 4.51412H14.0439C14.187 4.51412 14.3064 4.4663 14.402 4.37067C14.4977 4.27504 14.5455 4.15566 14.5455 4.01255C14.5455 3.86943 14.4977 3.75006 14.402 3.65443C14.3064 3.5588 14.187 3.51098 14.0439 3.51098H4.01255C3.8701 3.51098 3.75073 3.5588 3.65443 3.65443C3.55813 3.75006 3.51031 3.86943 3.51098 4.01255C3.51165 4.15566 3.55947 4.27504 3.65443 4.37067C3.74939 4.4663 3.86877 4.51412 4.01255 4.51412Z" fill="white"/>
</svg>
