<svg width="16" height="16" viewBox="0 0 16 16" fill="none" xmlns="http://www.w3.org/2000/svg">
<path d="M3.45565 15.4192L3.45489 15.42C3.40223 15.4737 3.34626 15.5 3.25307 15.5H0.785324C0.693531 15.5 0.63802 15.4741 0.58501 15.4195C0.531267 15.3642 0.500418 15.2996 0.5 15.1912V6.816C0.5 6.69402 0.534008 6.63009 0.581979 6.58158C0.635963 6.52699 0.693233 6.5004 0.786178 6.5H3.25307C3.34463 6.5 3.4001 6.52582 3.45299 6.58009C3.50724 6.63629 3.53742 6.70105 3.53742 6.808V15.185C3.53742 15.3065 3.50357 15.3705 3.45565 15.4192ZM6.5785 0.500004H6.58H9.41514C9.51875 0.500004 9.57458 0.529123 9.62239 0.578624C9.67587 0.634551 9.70629 0.699805 9.70629 0.808004V15.192C9.70629 15.2996 9.67586 15.3636 9.62203 15.4187C9.56779 15.4743 9.51169 15.5 9.42097 15.5H6.58583C6.48221 15.5 6.42639 15.4709 6.37858 15.4214C6.32509 15.3655 6.29468 15.3002 6.29468 15.192V0.808004C6.29468 0.700815 6.32499 0.636003 6.37946 0.579719C6.43197 0.525464 6.48681 0.499728 6.5785 0.500004ZM15.5 8.79857V8.8V15.2C15.5 15.3038 15.4707 15.3657 15.4175 15.42C15.3651 15.4734 15.309 15.5 15.2147 15.5H12.7479C12.6536 15.5 12.5975 15.4734 12.5451 15.42C12.4919 15.3657 12.4626 15.3038 12.4626 15.2V8.8C12.4626 8.69617 12.4919 8.6343 12.5451 8.58004C12.5975 8.52663 12.6536 8.5 12.7479 8.5H15.2147C15.3079 8.5 15.3646 8.52637 15.4182 8.5808C15.4714 8.63483 15.5003 8.69586 15.5 8.79857Z" stroke="white"/>
</svg>
