<svg width="16" height="16" viewBox="0 0 16 16" fill="none" xmlns="http://www.w3.org/2000/svg">
<mask id="path-1-inside-1_227_1388" fill="white">
<path fill-rule="evenodd" clip-rule="evenodd" d="M11.5382 6.73686C12.8072 6.73686 13.856 7.07877 14.6845 7.76259C15.0967 8.10448 15.418 8.52448 15.6484 9.02259C15.8828 9.53753 16 10.1053 16 10.7258C16 11.7093 15.7272 12.4944 15.1816 13.0812C14.6926 13.6046 14.1409 13.8663 13.5266 13.8663C12.8719 13.8663 12.5122 13.5687 12.4475 12.9735C12.0434 13.5687 11.4978 13.8662 10.8107 13.8662C10.257 13.8662 9.81852 13.7059 9.49521 13.3851C9.14357 13.0389 8.96776 12.564 8.96776 11.9605C8.96776 11.5594 9.04759 11.1658 9.20724 10.7796C9.3669 10.3933 9.58817 10.0588 9.87103 9.77602C10.4086 9.23997 11.0997 8.97194 11.9444 8.97194C12.5829 8.97194 13.179 9.07535 13.7327 9.28217L13.3265 11.9161C13.2861 12.1736 13.2659 12.3614 13.2659 12.4796C13.2659 12.7709 13.3892 12.9165 13.6357 12.9165C13.959 12.9165 14.248 12.7202 14.5026 12.3277C14.8138 11.8507 14.9694 11.285 14.9694 10.6308C14.9694 9.73168 14.6663 9.03098 14.0601 8.52869C13.3892 7.97574 12.5566 7.69927 11.5624 7.69927C10.7945 7.69927 10.0953 7.88922 9.46489 8.26911C8.87076 8.62793 8.42416 9.11335 8.12511 9.72538C7.88669 10.2235 7.76747 10.7764 7.76744 11.3843C7.76744 12.5366 8.16755 13.4505 8.96776 14.1259C9.67097 14.721 10.5642 15.0186 11.6473 15.0186C12.2656 15.0186 12.9204 14.9004 13.6115 14.6641L13.7873 15.6391C13.0558 15.8797 12.3101 16 11.5503 16C10.1519 16 9.01426 15.5927 8.13723 14.778C7.20365 13.9169 6.73686 12.7772 6.73686 11.3589C6.73686 10.0208 7.1794 8.92124 8.06448 8.06014C8.9779 7.17795 10.1358 6.73686 11.5382 6.73686ZM11.9625 9.85201C11.7322 9.85201 11.5038 9.91215 11.2775 10.0324C11.0512 10.1528 10.8572 10.3184 10.6955 10.5295C10.3641 10.9558 10.1984 11.4328 10.1984 11.9604C10.1984 12.2559 10.2712 12.4891 10.4166 12.6601C10.5622 12.831 10.7602 12.9165 11.0107 12.9165C11.3745 12.9165 11.6756 12.7603 11.914 12.448C12.0393 12.2876 12.1383 11.9773 12.2111 11.5172L12.4657 9.94063C12.2596 9.88155 12.0919 9.85201 11.9625 9.85201M15.1579 0L15.158 7.41869C14.6697 6.94965 14.0986 6.57519 13.4738 6.31429L13.4737 2.52632L8.88834 6.48751C8.36315 6.75513 7.88448 7.10558 7.47072 7.52539L1.68423 2.52632V10.1053L6.04122 10.1052C5.94361 10.5192 5.89446 10.9431 5.89477 11.3684C5.89479 11.5102 5.90011 11.6505 5.91072 11.7895L0 11.7895V0H15.1579ZM12 1.68423H3.1579L7.57895 5.4737L12 1.68423Z"/>
</mask>
<path fill-rule="evenodd" clip-rule="evenodd" d="M11.5382 6.73686C12.8072 6.73686 13.856 7.07877 14.6845 7.76259C15.0967 8.10448 15.418 8.52448 15.6484 9.02259C15.8828 9.53753 16 10.1053 16 10.7258C16 11.7093 15.7272 12.4944 15.1816 13.0812C14.6926 13.6046 14.1409 13.8663 13.5266 13.8663C12.8719 13.8663 12.5122 13.5687 12.4475 12.9735C12.0434 13.5687 11.4978 13.8662 10.8107 13.8662C10.257 13.8662 9.81852 13.7059 9.49521 13.3851C9.14357 13.0389 8.96776 12.564 8.96776 11.9605C8.96776 11.5594 9.04759 11.1658 9.20724 10.7796C9.3669 10.3933 9.58817 10.0588 9.87103 9.77602C10.4086 9.23997 11.0997 8.97194 11.9444 8.97194C12.5829 8.97194 13.179 9.07535 13.7327 9.28217L13.3265 11.9161C13.2861 12.1736 13.2659 12.3614 13.2659 12.4796C13.2659 12.7709 13.3892 12.9165 13.6357 12.9165C13.959 12.9165 14.248 12.7202 14.5026 12.3277C14.8138 11.8507 14.9694 11.285 14.9694 10.6308C14.9694 9.73168 14.6663 9.03098 14.0601 8.52869C13.3892 7.97574 12.5566 7.69927 11.5624 7.69927C10.7945 7.69927 10.0953 7.88922 9.46489 8.26911C8.87076 8.62793 8.42416 9.11335 8.12511 9.72538C7.88669 10.2235 7.76747 10.7764 7.76744 11.3843C7.76744 12.5366 8.16755 13.4505 8.96776 14.1259C9.67097 14.721 10.5642 15.0186 11.6473 15.0186C12.2656 15.0186 12.9204 14.9004 13.6115 14.6641L13.7873 15.6391C13.0558 15.8797 12.3101 16 11.5503 16C10.1519 16 9.01426 15.5927 8.13723 14.778C7.20365 13.9169 6.73686 12.7772 6.73686 11.3589C6.73686 10.0208 7.1794 8.92124 8.06448 8.06014C8.9779 7.17795 10.1358 6.73686 11.5382 6.73686ZM11.9625 9.85201C11.7322 9.85201 11.5038 9.91215 11.2775 10.0324C11.0512 10.1528 10.8572 10.3184 10.6955 10.5295C10.3641 10.9558 10.1984 11.4328 10.1984 11.9604C10.1984 12.2559 10.2712 12.4891 10.4166 12.6601C10.5622 12.831 10.7602 12.9165 11.0107 12.9165C11.3745 12.9165 11.6756 12.7603 11.914 12.448C12.0393 12.2876 12.1383 11.9773 12.2111 11.5172L12.4657 9.94063C12.2596 9.88155 12.0919 9.85201 11.9625 9.85201M15.1579 0L15.158 7.41869C14.6697 6.94965 14.0986 6.57519 13.4738 6.31429L13.4737 2.52632L8.88834 6.48751C8.36315 6.75513 7.88448 7.10558 7.47072 7.52539L1.68423 2.52632V10.1053L6.04122 10.1052C5.94361 10.5192 5.89446 10.9431 5.89477 11.3684C5.89479 11.5102 5.90011 11.6505 5.91072 11.7895L0 11.7895V0H15.1579ZM12 1.68423H3.1579L7.57895 5.4737L12 1.68423Z" fill="black"/>
<path d="M14.6845 7.76259L14.876 7.53167L14.8755 7.53122L14.6845 7.76259ZM15.6484 9.02259L15.9215 8.8983L15.9207 8.89666L15.6484 9.02259ZM15.1816 13.0812L15.4008 13.286L15.4013 13.2854L15.1816 13.0812ZM12.4475 12.9735L12.7458 12.9411L12.6577 12.1301L12.1993 12.805L12.4475 12.9735ZM9.49521 13.3851L9.70651 13.1721L9.70567 13.1713L9.49521 13.3851ZM9.20724 10.7796L9.48449 10.8942L9.48449 10.8942L9.20724 10.7796ZM9.87103 9.77602L9.65919 9.5636L9.65893 9.56386L9.87103 9.77602ZM13.7327 9.28217L14.0292 9.32789L14.0664 9.08657L13.8377 9.00113L13.7327 9.28217ZM13.3265 11.9161L13.6229 11.9626L13.623 11.9619L13.3265 11.9161ZM14.5026 12.3277L14.2514 12.1638L14.251 12.1644L14.5026 12.3277ZM14.0601 8.52869L14.2515 8.29768L14.2509 8.29719L14.0601 8.52869ZM9.46489 8.26911L9.31005 8.01216L9.3098 8.01231L9.46489 8.26911ZM8.12511 9.72538L7.85556 9.59367L7.85451 9.59585L8.12511 9.72538ZM7.76744 11.3843L7.46744 11.3842V11.3843H7.76744ZM8.96776 14.1259L9.16157 13.8969L9.16125 13.8966L8.96776 14.1259ZM13.6115 14.6641L13.9067 14.6108L13.8448 14.2672L13.5144 14.3802L13.6115 14.6641ZM13.7873 15.6391L13.881 15.9241L14.1288 15.8426L14.0825 15.5859L13.7873 15.6391ZM11.5503 16L11.5503 15.7H11.5503V16ZM8.13723 14.778L8.3414 14.5582L8.34063 14.5575L8.13723 14.778ZM8.06448 8.06014L7.85607 7.84435L7.85528 7.84511L8.06448 8.06014ZM11.2775 10.0324L11.1367 9.76753L11.1367 9.76755L11.2775 10.0324ZM10.6955 10.5295L10.9324 10.7136L10.9337 10.7119L10.6955 10.5295ZM10.1984 11.9604H10.4984V11.9604L10.1984 11.9604ZM10.4166 12.6601L10.1882 12.8545L10.1882 12.8546L10.4166 12.6601ZM11.0107 12.9165L11.0107 13.2165H11.0107V12.9165ZM11.914 12.448L11.6776 12.2633L11.6756 12.2659L11.914 12.448ZM12.2111 11.5172L11.9149 11.4694L11.9148 11.4703L12.2111 11.5172ZM12.4657 9.94063L12.7618 9.98845L12.8043 9.72561L12.5483 9.65224L12.4657 9.94063ZM15.1579 0L15.4579 -4.77395e-06L15.4579 -0.3H15.1579V0ZM15.158 7.41869L14.9502 7.63506L15.458 8.1228L15.458 7.41869L15.158 7.41869ZM13.4738 6.31429L13.1738 6.3143L13.1738 6.51414L13.3582 6.59113L13.4738 6.31429ZM13.4737 2.52632L13.7737 2.52631L13.7737 1.87072L13.2776 2.2993L13.4737 2.52632ZM8.88834 6.48751L9.02455 6.7548L9.05694 6.73829L9.08445 6.71453L8.88834 6.48751ZM7.47072 7.52539L7.27459 7.7524L7.48718 7.93606L7.68438 7.73598L7.47072 7.52539ZM1.68423 2.52632L1.88035 2.2993L1.38423 1.87069V2.52632H1.68423ZM1.68423 10.1053H1.38423V10.4053L1.68423 10.4053L1.68423 10.1053ZM6.04122 10.1052L6.33321 10.1741L6.42018 9.80523L6.04121 9.80523L6.04122 10.1052ZM5.89477 11.3684L6.19477 11.3684V11.3682L5.89477 11.3684ZM5.91072 11.7895L5.91071 12.0895L6.23448 12.0895L6.20985 11.7667L5.91072 11.7895ZM0 11.7895H-0.3V12.0895L-2.01768e-06 12.0895L0 11.7895ZM0 0V-0.3H-0.3V0H0ZM12 1.68423L12.1952 1.912L12.811 1.38423H12V1.68423ZM3.1579 1.68423V1.38423H2.34692L2.96266 1.912L3.1579 1.68423ZM7.57895 5.4737L7.38372 5.70148L7.57895 5.86883L7.77419 5.70148L7.57895 5.4737ZM11.5382 7.03686C12.7507 7.03686 13.7282 7.36225 14.4935 7.99396L14.8755 7.53122C13.9838 6.79529 12.8637 6.43686 11.5382 6.43686V7.03686ZM14.493 7.9935C14.8699 8.30614 15.164 8.68995 15.3761 9.14852L15.9207 8.89666C15.672 8.35901 15.3235 7.90282 14.876 7.53167L14.493 7.9935ZM15.3754 9.14687C15.5903 9.61915 15.7 10.1439 15.7 10.7258H16.3C16.3 10.0666 16.1753 9.45591 15.9215 8.8983L15.3754 9.14687ZM15.7 10.7258C15.7 11.6516 15.4447 12.3576 14.9619 12.8769L15.4013 13.2854C16.0096 12.6312 16.3 11.767 16.3 10.7258H15.7ZM14.9624 12.8764C14.5198 13.3501 14.0439 13.5663 13.5266 13.5663V14.1663C14.238 14.1663 14.8654 13.8591 15.4008 13.286L14.9624 12.8764ZM13.5266 13.5663C13.2413 13.5663 13.065 13.5013 12.957 13.4119C12.853 13.3259 12.7721 13.1839 12.7458 12.9411L12.1493 13.0059C12.1876 13.3583 12.3189 13.6627 12.5746 13.8742C12.8263 14.0825 13.1572 14.1663 13.5266 14.1663V13.5663ZM12.1993 12.805C11.8479 13.3225 11.3929 13.5662 10.8107 13.5662V14.1662C11.6026 14.1662 12.2388 13.8148 12.6957 13.142L12.1993 12.805ZM10.8107 13.5662C10.318 13.5662 9.96192 13.4255 9.7065 13.1721L9.28391 13.598C9.67512 13.9862 10.196 14.1662 10.8107 14.1662V13.5662ZM9.70567 13.1713C9.42365 12.8936 9.26776 12.5028 9.26776 11.9605H8.66776C8.66776 12.6253 8.8635 13.1842 9.28474 13.5989L9.70567 13.1713ZM9.26776 11.9605C9.26776 11.6004 9.33921 11.2456 9.48449 10.8942L8.93 10.665C8.75596 11.086 8.66776 11.5185 8.66776 11.9605H9.26776ZM9.48449 10.8942C9.62976 10.5428 9.82944 10.2418 10.0831 9.98818L9.65893 9.56386C9.34689 9.87582 9.10405 10.2439 8.92999 10.665L9.48449 10.8942ZM10.0829 9.98844C10.5576 9.51503 11.1693 9.27194 11.9444 9.27194V8.67194C11.03 8.67194 10.2595 8.9649 9.65919 9.5636L10.0829 9.98844ZM11.9444 9.27194C12.55 9.27194 13.1103 9.3699 13.6277 9.5632L13.8377 9.00113C13.2478 8.7808 12.6159 8.67194 11.9444 8.67194V9.27194ZM13.4362 9.23644L13.03 11.8704L13.623 11.9619L14.0292 9.32789L13.4362 9.23644ZM13.0301 11.8696C12.9895 12.1287 12.9659 12.3363 12.9659 12.4796H13.5659C13.5659 12.3865 13.5828 12.2185 13.6229 11.9626L13.0301 11.8696ZM12.9659 12.4796C12.9659 12.6604 13.0031 12.8519 13.1294 13.0011C13.2638 13.1599 13.4519 13.2165 13.6357 13.2165V12.6165C13.603 12.6165 13.5878 12.6116 13.5839 12.6101C13.5818 12.6093 13.5848 12.6104 13.5874 12.6135C13.5904 12.617 13.5659 12.5901 13.5659 12.4796H12.9659ZM13.6357 13.2165C14.1015 13.2165 14.4711 12.9276 14.7543 12.491L14.251 12.1644C14.0249 12.5129 13.8165 12.6165 13.6357 12.6165V13.2165ZM14.7539 12.4916C15.1014 11.9589 15.2694 11.3344 15.2694 10.6308H14.6694C14.6694 11.2357 14.5262 11.7425 14.2514 12.1638L14.7539 12.4916ZM15.2694 10.6308C15.2694 9.65657 14.9367 8.86546 14.2515 8.29768L13.8687 8.7597C14.3959 9.1965 14.6694 9.80678 14.6694 10.6308H15.2694ZM14.2509 8.29719C13.5187 7.69368 12.6157 7.39927 11.5624 7.39927V7.99927C12.4976 7.99927 13.2597 8.25781 13.8693 8.76019L14.2509 8.29719ZM11.5624 7.39927C10.7424 7.39927 9.98931 7.60285 9.31005 8.01216L9.61973 8.52607C10.2014 8.17558 10.8466 7.99927 11.5624 7.99927V7.39927ZM9.3098 8.01231C8.66727 8.40035 8.18045 8.92878 7.85557 9.59367L8.39466 9.85708C8.66788 9.29792 9.07424 8.8555 9.61998 8.52591L9.3098 8.01231ZM7.85451 9.59585C7.59486 10.1383 7.46747 10.7362 7.46744 11.3842L8.06744 11.3843C8.06746 10.8167 8.17852 10.3086 8.39571 9.8549L7.85451 9.59585ZM7.46744 11.3843C7.46744 12.615 7.8992 13.6166 8.77426 14.3551L9.16125 13.8966C8.43589 13.2844 8.06744 12.4583 8.06744 11.3843H7.46744ZM8.77395 14.3549C9.54056 15.0037 10.5063 15.3186 11.6473 15.3186V14.7186C10.622 14.7186 9.80138 14.4384 9.16157 13.8969L8.77395 14.3549ZM11.6473 15.3186C12.304 15.3186 12.9917 15.1931 13.7086 14.9479L13.5144 14.3802C12.849 14.6078 12.2272 14.7186 11.6473 14.7186V15.3186ZM13.3162 14.7173L13.492 15.6923L14.0825 15.5859L13.9067 14.6108L13.3162 14.7173ZM13.6935 15.3541C12.9919 15.5849 12.2779 15.7 11.5503 15.7L11.5503 16.3C12.3424 16.3 13.1197 16.1745 13.881 15.9241L13.6935 15.3541ZM11.5503 15.7C10.2141 15.7 9.15372 15.3128 8.3414 14.5582L7.93306 14.9978C8.8748 15.8726 10.0898 16.3 11.5503 16.3V15.7ZM8.34063 14.5575C7.47616 13.7601 7.03686 12.7043 7.03686 11.3589H6.43686C6.43686 12.8501 6.93114 14.0737 7.93383 14.9985L8.34063 14.5575ZM7.03686 11.3589C7.03686 10.0943 7.45182 9.07476 8.27368 8.27516L7.85528 7.84511C6.90698 8.76772 6.43686 9.94735 6.43686 11.3589H7.03686ZM8.27289 8.27593C9.12432 7.45362 10.2047 7.03686 11.5382 7.03686V6.43686C10.0669 6.43686 8.83148 6.90229 7.85607 7.84435L8.27289 8.27593ZM11.9625 9.55201C11.6777 9.55201 11.4014 9.62684 11.1367 9.76753L11.4183 10.2974C11.6062 10.1975 11.7866 10.152 11.9625 10.152V9.55201ZM11.1367 9.76755C10.8709 9.90882 10.6442 10.1032 10.4574 10.3471L10.9337 10.7119C11.0702 10.5337 11.2314 10.3967 11.4183 10.2973L11.1367 9.76755ZM10.4587 10.3454C10.0874 10.823 9.8984 11.3644 9.89843 11.9604L10.4984 11.9604C10.4984 11.5011 10.6408 11.0886 10.9324 10.7136L10.4587 10.3454ZM9.89843 11.9604C9.89843 12.3043 9.9836 12.6141 10.1882 12.8545L10.6451 12.4657C10.5587 12.3642 10.4984 12.2075 10.4984 11.9604H9.89843ZM10.1882 12.8546C10.3978 13.1007 10.6837 13.2165 11.0107 13.2165L11.0108 12.6165C10.8367 12.6165 10.7266 12.5613 10.6451 12.4656L10.1882 12.8546ZM11.0107 13.2165C11.4764 13.2165 11.8626 13.0098 12.1525 12.63L11.6756 12.2659C11.4886 12.5109 11.2726 12.6165 11.0107 12.6165V13.2165ZM12.1505 12.6326C12.3277 12.4057 12.4345 12.0252 12.5074 11.5641L11.9148 11.4703C11.8422 11.9294 11.7509 12.1694 11.6776 12.2633L12.1505 12.6326ZM12.5072 11.565L12.7618 9.98845L12.1695 9.8928L11.9149 11.4694L12.5072 11.565ZM12.5483 9.65224C12.3305 9.5898 12.1321 9.55201 11.9625 9.55201V10.152C12.0516 10.152 12.1886 10.1733 12.383 10.229L12.5483 9.65224ZM14.8579 4.77395e-06L14.858 7.41869L15.458 7.41869L15.4579 -4.77395e-06L14.8579 4.77395e-06ZM15.3658 7.20232C14.8507 6.7076 14.2484 6.31264 13.5893 6.03746L13.3582 6.59113C13.9488 6.83774 14.4886 7.19169 14.9502 7.63506L15.3658 7.20232ZM13.7738 6.31429L13.7737 2.52631L13.1737 2.52632L13.1738 6.3143L13.7738 6.31429ZM13.2776 2.2993L8.69222 6.26049L9.08445 6.71453L13.6698 2.75334L13.2776 2.2993ZM8.75213 6.22021C8.19825 6.50246 7.69343 6.87205 7.25705 7.3148L7.68438 7.73598C8.07554 7.3391 8.52805 7.00781 9.02455 6.7548L8.75213 6.22021ZM7.66684 7.29837L1.88035 2.2993L1.4881 2.75333L7.27459 7.7524L7.66684 7.29837ZM1.38423 2.52632V10.1053H1.98423V2.52632H1.38423ZM1.68423 10.4053L6.04122 10.4052L6.04121 9.80523L1.68422 9.80527L1.68423 10.4053ZM5.74922 10.0364C5.64628 10.473 5.59444 10.9201 5.59477 11.3686L6.19477 11.3682C6.19448 10.9661 6.24094 10.5654 6.33321 10.1741L5.74922 10.0364ZM5.59477 11.3685C5.5948 11.5177 5.60039 11.6657 5.61159 11.8124L6.20985 11.7667C6.19983 11.6354 6.19479 11.5026 6.19477 11.3684L5.59477 11.3685ZM5.91072 11.4895L2.01768e-06 11.4895L-2.01768e-06 12.0895L5.91071 12.0895L5.91072 11.4895ZM0.3 11.7895V0H-0.3V11.7895H0.3ZM0 0.3H15.1579V-0.3H0V0.3ZM12 1.38423H3.1579V1.98423H12V1.38423ZM2.96266 1.912L7.38372 5.70148L7.77419 5.24592L3.35313 1.45645L2.96266 1.912ZM7.77419 5.70148L12.1952 1.912L11.8048 1.45645L7.38372 5.24592L7.77419 5.70148Z" fill="white" mask="url(#path-1-inside-1_227_1388)"/>
</svg>
