<svg width="22" height="16" viewBox="0 0 22 16" fill="none" xmlns="http://www.w3.org/2000/svg">
<path d="M19.1766 14.7667H19.4152L19.2479 14.5966L14.9581 10.2326C14.744 10.0148 14.7441 9.66543 14.9584 9.44771C15.1777 9.22499 15.5368 9.22499 15.7561 9.44772L20.116 13.8768L20.2873 14.0508V13.8067V2.14V1.89682L20.1162 2.06965L11.749 10.523C11.749 10.523 11.749 10.523 11.749 10.523C11.5217 10.7525 11.2146 10.8811 10.8948 10.8811C10.575 10.8811 10.2678 10.7525 10.0405 10.523C10.0405 10.523 10.0405 10.523 10.0405 10.523L1.88335 2.27634L1.71226 2.10337V2.34667V13.8933V14.1435L1.8847 13.9623L6.15983 9.46889C6.37593 9.24177 6.73612 9.23553 6.95996 9.45502C7.17909 9.66991 7.18515 10.0209 6.97356 10.2432L2.82919 14.5977L2.66841 14.7667H2.90163H19.1766ZM2.67194 1.23333H2.43238L2.60085 1.40366L10.8237 9.71699L10.8947 9.78884L10.9658 9.71702L19.1952 1.40368L19.3638 1.23333H19.1241H2.67194ZM1.81226 0.1H20.1873C20.5083 0.1 20.8166 0.229551 21.0441 0.460676C21.2716 0.691854 21.3998 1.00573 21.3998 1.33333V14.6667C21.3998 14.9943 21.2716 15.3081 21.0441 15.5393C20.8166 15.7704 20.5083 15.9 20.1873 15.9H1.81226C1.49119 15.9 1.18296 15.7704 0.955443 15.5393C0.727877 15.3081 0.599756 14.9943 0.599756 14.6667V1.33333C0.599756 1.00573 0.727877 0.691854 0.955443 0.460676C1.18296 0.229551 1.49119 0.1 1.81226 0.1Z" fill="black" stroke="#FDDA81" stroke-width="0.2"/>
</svg>
