<svg width="11" height="18" viewBox="0 0 11 18" fill="none" xmlns="http://www.w3.org/2000/svg">
<path d="M5.9 7V7.1H6H10.3719L9.92192 8.9H6H5.9V9V17.9H4.1V9V8.9H4H0.1V7.1H4H4.1V7V5.128C4.1 3.35314 4.28509 2.72472 4.62222 2.09309L4.62236 2.09282C4.95425 1.46651 5.46651 0.954245 6.09282 0.622361L6.09309 0.62222C6.72472 0.285091 7.35314 0.1 9.128 0.1C9.61106 0.1 10.0347 0.143239 10.4 0.228516V1.9H9.128C7.80412 1.9 7.37821 1.97689 6.94229 2.20958C6.62877 2.37349 6.37303 2.62958 6.20956 2.94332C5.97687 3.37826 5.9 3.80429 5.9 5.128V7Z" fill="#009963" stroke="white" stroke-width="0.2"/>
</svg>
