<svg width="16" height="16" viewBox="0 0 16 16" fill="none" xmlns="http://www.w3.org/2000/svg">
<path d="M13.2237 11.7895V12.0395H13.4737H15.1579C15.3149 12.0395 15.4655 12.1019 15.5766 12.2129C15.6876 12.3239 15.75 12.4745 15.75 12.6316C15.75 12.7886 15.6876 12.9392 15.5766 13.0503C15.4655 13.1613 15.3149 13.2237 15.1579 13.2237H13.4737H13.2237V13.4737V15.1579C13.2237 15.3149 13.1613 15.4655 13.0503 15.5766C12.9392 15.6876 12.7886 15.75 12.6316 15.75C12.4745 15.75 12.3239 15.6876 12.2129 15.5766C12.1019 15.4655 12.0395 15.3149 12.0395 15.1579V13.4737V13.2237H11.7895H10.1053C9.94823 13.2237 9.79762 13.1613 9.68658 13.0503C9.57554 12.9392 9.51316 12.7886 9.51316 12.6316C9.51316 12.4745 9.57554 12.3239 9.68658 12.2129C9.79762 12.1019 9.94823 12.0395 10.1053 12.0395H11.7895H12.0395V11.7895V10.1053C12.0395 9.94823 12.1019 9.79762 12.2129 9.68658C12.3239 9.57554 12.4745 9.51316 12.6316 9.51316C12.7886 9.51316 12.9392 9.57554 13.0503 9.68658C13.1613 9.79762 13.2237 9.94823 13.2237 10.1053V11.7895ZM11.5395 1.68421V1.93421H11.7895H13.4737C13.8541 1.93421 14.2189 2.08531 14.4878 2.35428C14.7568 2.62325 14.9079 2.98804 14.9079 3.36842V6.73684C14.9079 6.89388 14.8455 7.04448 14.7345 7.15552C14.6234 7.26656 14.4728 7.32895 14.3158 7.32895H1.68421H1.43421V7.57895V13.4737V13.7237H1.68421H6.73684C6.89388 13.7237 7.04448 13.7861 7.15552 13.8971C7.26656 14.0081 7.32895 14.1588 7.32895 14.3158C7.32895 14.4728 7.26656 14.6234 7.15552 14.7345C7.04448 14.8455 6.89388 14.9079 6.73684 14.9079H1.68421C1.30383 14.9079 0.939037 14.7568 0.670071 14.4878C0.401104 14.2189 0.25 13.8541 0.25 13.4737V3.36842C0.25 2.98804 0.401104 2.62325 0.67007 2.35428C0.939037 2.08531 1.30383 1.93421 1.68421 1.93421H3.36842H3.61842V1.68421V0.842105C3.61842 0.685069 3.6808 0.534465 3.79184 0.423424C3.90289 0.312382 4.05349 0.25 4.21053 0.25C4.36756 0.25 4.51817 0.312382 4.62921 0.423423L4.80598 0.246647L4.62921 0.423424C4.74025 0.534465 4.80263 0.685069 4.80263 0.842105V1.68421V1.93421H5.05263H10.1053H10.3553V1.68421V0.842105C10.3553 0.68507 10.4176 0.534465 10.5287 0.423424C10.6397 0.312382 10.7903 0.25 10.9474 0.25C11.1044 0.25 11.255 0.312382 11.3661 0.423424C11.4771 0.534464 11.5395 0.685068 11.5395 0.842105V1.68421ZM13.7237 3.36842V3.11842H13.4737H1.68421H1.43421V3.36842V5.89474V6.14474H1.68421H13.4737H13.7237V5.89474V3.36842Z" fill="black" stroke="white" stroke-width="0.5"/>
</svg>
