<svg width="18" height="18" viewBox="0 0 18 18" fill="none" xmlns="http://www.w3.org/2000/svg">
<path d="M13.8 13.8C15.5673 13.8 17 10.9346 17 7.4C17 3.86538 15.5673 1 13.8 1C12.0327 1 10.6 3.86538 10.6 7.4C10.6 10.9346 12.0327 13.8 13.8 13.8Z" stroke="white" stroke-linecap="round" stroke-linejoin="round"/>
<path d="M13.8 1C11.3176 1 6.172 2.9024 3.2168 4.0832C1.8632 4.624 1 5.9424 1 7.4C1 8.8576 1.864 10.176 3.2168 10.7168C6.172 11.8976 11.3176 13.8 13.8 13.8M8.2 17L6.6456 16.144C5.81575 15.6847 5.14261 14.9873 4.71309 14.1416C4.28357 13.296 4.11739 12.341 4.236 11.4" stroke="white" stroke-linecap="round" stroke-linejoin="round"/>
</svg>
