<svg width="20" height="20" viewBox="0 0 20 20" fill="none" xmlns="http://www.w3.org/2000/svg">
<path d="M14.5 4.85714H15.7857M6.14286 1H13.8571C15.2211 1 16.5292 1.54184 17.4937 2.50631C18.4582 3.47078 19 4.77889 19 6.14286V13.8571C19 15.2211 18.4582 16.5292 17.4937 17.4937C16.5292 18.4582 15.2211 19 13.8571 19H6.14286C4.77889 19 3.47078 18.4582 2.50631 17.4937C1.54184 16.5292 1 15.2211 1 13.8571V6.14286C1 4.77889 1.54184 3.47078 2.50631 2.50631C3.47078 1.54184 4.77889 1 6.14286 1ZM10 13.8571C8.97702 13.8571 7.99594 13.4508 7.27259 12.7274C6.54923 12.0041 6.14286 11.023 6.14286 10C6.14286 8.97702 6.54923 7.99594 7.27259 7.27259C7.99594 6.54923 8.97702 6.14286 10 6.14286C11.023 6.14286 12.0041 6.54923 12.7274 7.27259C13.4508 7.99594 13.8571 8.97702 13.8571 10C13.8571 11.023 13.4508 12.0041 12.7274 12.7274C12.0041 13.4508 11.023 13.8571 10 13.8571Z" stroke="#009963" stroke-width="1.5"/>
</svg>
