<svg width="18" height="18" viewBox="0 0 18 18" fill="none" xmlns="http://www.w3.org/2000/svg">
<path d="M8.64286 6.22286V6.46801L8.81433 6.2928C9.74226 5.34463 10.9457 4.72857 12.3429 4.72857C13.8167 4.72857 15.2302 5.31405 16.2724 6.35622C17.3145 7.39839 17.9 8.81187 17.9 10.2857V17.9H16.0429V10.2857C16.0429 9.30441 15.653 8.3633 14.9592 7.66942C14.2653 6.97554 13.3242 6.58571 12.3429 6.58571C11.3616 6.58571 10.4204 6.97554 9.72656 7.66942C9.03268 8.3633 8.64286 9.30441 8.64286 10.2857V17.9H6.78572V5.24286H8.64286V6.22286ZM1.54286 2.98571C1.16019 2.98571 0.793191 2.8337 0.522603 2.56311C0.252015 2.29252 0.1 1.92553 0.1 1.54286C0.1 1.16019 0.252015 0.793191 0.522603 0.522603C0.793191 0.252015 1.16019 0.1 1.54286 0.1C1.92553 0.1 2.29252 0.252015 2.56311 0.522603C2.8337 0.793191 2.98571 1.16019 2.98571 1.54286C2.98571 1.92553 2.8337 2.29252 2.56311 2.56311C2.29252 2.8337 1.92553 2.98571 1.54286 2.98571ZM0.614286 5.24286H2.47143V17.9H0.614286V5.24286Z" fill="#009963" stroke="white" stroke-width="0.2"/>
</svg>
