<svg width="20" height="16" viewBox="0 0 20 16" fill="none" xmlns="http://www.w3.org/2000/svg">
<path d="M1.4 14.6661V5.45555H4.05075V11.4445V12.3445H4.95075H11.2473H12.1473V11.4445V4.55555V3.65555H11.2473H5.85075H4.95075H2.63785L5.32967 0.900927L14.2873 0.9C14.2874 0.9 14.2874 0.9 14.2874 0.9C14.4894 0.900031 14.6898 1.07408 14.6898 1.3339V4.31583V6.24582L16.1683 5.00529L18.6 2.96496V13.1459L16.1671 11.1057L14.6888 9.86602V11.7953V14.6661C14.6888 14.9268 14.4885 15.1 14.2873 15.1H1.80245C1.60046 15.1 1.4 14.9259 1.4 14.6661Z" fill="black" stroke="white" stroke-width="1.8"/>
</svg>
