<svg width="20" height="16" viewBox="0 0 20 16" fill="none" xmlns="http://www.w3.org/2000/svg">
<path d="M3.7477 14.0439L1.94903 15.7533C1.68233 16.0067 1.37411 16.0649 1.02437 15.9278C0.674626 15.7907 0.499756 15.5416 0.499756 15.1805V1.62107C0.499756 1.15896 0.662663 0.773419 0.988478 0.464453C1.31429 0.155486 1.71998 0.000668758 2.20553 0H17.795C18.2806 0 18.6863 0.154818 19.0121 0.464453C19.3379 0.774088 19.5005 1.15963 19.4998 1.62107V12.4239C19.4998 12.8853 19.3372 13.2708 19.0121 13.5805C18.687 13.8901 18.2813 14.0446 17.795 14.0439H3.7477ZM3.29698 13.0408H17.795C17.9569 13.0408 18.1057 12.9766 18.2415 12.8482C18.3773 12.7198 18.4449 12.5783 18.4442 12.4239V1.62007C18.4442 1.46625 18.3766 1.32481 18.2415 1.19574C18.1064 1.06667 17.9576 1.00247 17.795 1.00314H2.20448C2.04263 1.00314 1.89379 1.06734 1.75798 1.19574C1.62216 1.32414 1.55461 1.46558 1.55531 1.62007V14.6909L3.29698 13.0408ZM5.77753 7.79438C5.99568 7.79438 6.18568 7.71747 6.34753 7.56365C6.50939 7.40984 6.59031 7.22928 6.59031 7.02196C6.59031 6.81465 6.50939 6.63408 6.34753 6.48027C6.18568 6.32645 5.99568 6.24954 5.77753 6.24954C5.55938 6.24954 5.36939 6.32645 5.20753 6.48027C5.04568 6.63408 4.96476 6.81465 4.96476 7.02196C4.96476 7.22928 5.04568 7.40984 5.20753 7.56365C5.36939 7.71747 5.55938 7.79438 5.77753 7.79438ZM9.99975 7.79438C10.2179 7.79438 10.4079 7.71747 10.5698 7.56365C10.7316 7.40984 10.8125 7.22928 10.8125 7.02196C10.8125 6.81465 10.7316 6.63408 10.5698 6.48027C10.4079 6.32645 10.2179 6.24954 9.99975 6.24954C9.78161 6.24954 9.59161 6.32645 9.42976 6.48027C9.2679 6.63408 9.18698 6.81465 9.18698 7.02196C9.18698 7.22928 9.2679 7.40984 9.42976 7.56365C9.59161 7.71747 9.78161 7.79438 9.99975 7.79438ZM14.222 7.79438C14.4401 7.79438 14.6301 7.71747 14.792 7.56365C14.9538 7.40984 15.0348 7.22928 15.0348 7.02196C15.0348 6.81465 14.9538 6.63408 14.792 6.48027C14.6301 6.32645 14.4401 6.24954 14.222 6.24954C14.0038 6.24954 13.8138 6.32645 13.652 6.48027C13.4901 6.63408 13.4092 6.81465 13.4092 7.02196C13.4092 7.22928 13.4901 7.40984 13.652 7.56365C13.8138 7.71747 14.0038 7.79438 14.222 7.79438Z" fill="black"/>
</svg>
