<svg width="18" height="18" viewBox="0 0 18 18" fill="none" xmlns="http://www.w3.org/2000/svg">
<path d="M13.1212 1H4.87879C3.85007 1 2.86348 1.40866 2.13607 2.13607C1.40866 2.86348 1 3.85007 1 4.87879V13.1212C1 14.1499 1.40866 15.1365 2.13607 15.8639C2.86348 16.5913 3.85007 17 4.87879 17H11.5144C12.0239 17 12.5284 16.8997 12.9991 16.7047C13.4698 16.5097 13.8975 16.2238 14.2577 15.8635L15.8635 14.2577C16.2238 13.8975 16.5097 13.4698 16.7047 12.9991C16.8997 12.5284 17 12.0239 17 11.5144V4.87879C17 3.85007 16.5913 2.86348 15.8639 2.13607C15.1365 1.40866 14.1499 1 13.1212 1Z" stroke="black" stroke-width="0.6" stroke-linecap="round" stroke-linejoin="round"/>
<path d="M17 10.6969H13.6061C12.8345 10.6969 12.0946 11.0034 11.549 11.549C11.0035 12.0945 10.697 12.8345 10.697 13.606V16.9999M4.87878 4.87872H12.1515M4.87878 8.75751H9.72727" stroke="black" stroke-width="0.6" stroke-linecap="round" stroke-linejoin="round"/>
</svg>
