<svg width="23" height="23" viewBox="0 0 23 23" fill="none" xmlns="http://www.w3.org/2000/svg">
<path d="M19.9678 9.80645V19.2903C19.9678 20.009 19.6823 20.6982 19.1741 21.2064C18.666 21.7145 17.9767 22 17.2581 22H3.76796C3.05142 22 2.36404 21.7162 1.85623 21.2107C1.34842 20.7051 1.06151 20.0191 1.05829 19.3025L1.00003 5.75413C0.996786 5.03571 1.27898 4.34541 1.78456 3.83499C2.29015 3.32458 2.97774 3.03584 3.69616 3.03226H13.1936" stroke="black" stroke-linecap="round" stroke-linejoin="round"/>
<path d="M19.2904 6.41935C20.7869 6.41935 22 5.20619 22 3.70968C22 2.21316 20.7869 1 19.2904 1C17.7939 1 16.5807 2.21316 16.5807 3.70968C16.5807 5.20619 17.7939 6.41935 19.2904 6.41935Z" fill="#6DC956" stroke="#6DC956" stroke-linecap="round" stroke-linejoin="round"/>
</svg>
