<svg width="18" height="18" viewBox="0 0 18 18" fill="none" xmlns="http://www.w3.org/2000/svg">
<path d="M10.0069 11.9809C10.4659 11.9733 10.9795 11.8119 11.432 11.5263C12.321 10.9668 12.7 10.0098 12.7 9V8.99989C12.6994 8.45022 12.5763 7.90759 12.3397 7.41145C12.1031 6.9153 11.759 6.4781 11.3322 6.13162C10.9055 5.78514 10.407 5.5381 9.87281 5.40843C9.33866 5.27877 8.78232 5.26974 8.24424 5.38202C7.70616 5.4943 7.19985 5.72505 6.76212 6.05751C6.32439 6.38996 5.96623 6.81577 5.71368 7.30399C5.46112 7.7922 5.32052 8.33055 5.30208 8.87991C5.28365 9.42928 5.38784 9.97584 5.6071 10.4799L5.60705 10.4799L5.60843 10.4828C5.6543 10.5796 5.68025 10.6847 5.68476 10.7917C5.68926 10.8987 5.67223 11.0056 5.63466 11.1059C5.59709 11.2062 5.53975 11.298 5.46605 11.3757C5.39235 11.4535 5.30379 11.5156 5.20562 11.5585C5.10744 11.6014 5.00166 11.6241 4.89454 11.6253C4.78742 11.6265 4.68115 11.6062 4.58203 11.5656C4.4829 11.5249 4.39295 11.4648 4.31751 11.3887C4.24206 11.3127 4.18266 11.2223 4.14283 11.1228L4.14287 11.1228L4.14167 11.12C3.79017 10.3136 3.64495 9.43224 3.71912 8.55561C3.7933 7.67898 4.08453 6.8346 4.56654 6.09863C5.04856 5.36266 5.7062 4.75826 6.48015 4.33994C7.2541 3.92162 8.12001 3.70254 8.99977 3.70246C9.87954 3.70238 10.7455 3.9213 11.5195 4.33948C12.2935 4.75766 12.9513 5.36194 13.4334 6.09782C13.9156 6.8337 14.207 7.67803 14.2813 8.55465C14.3556 9.43127 14.2106 10.3126 13.8592 11.1192L13.8592 11.1193C13.5377 11.8593 12.9485 12.4633 12.2849 12.8808L12.2848 12.8808C11.6187 13.2999 10.8244 13.566 10.0367 13.5809C9.31888 13.5941 8.57691 13.3951 7.98103 12.8782L7.85298 12.7671L7.81769 12.9329L7.17149 15.9695L7.15135 16.0641L7.24526 16.0874C8.72001 16.4526 10.272 16.3485 11.6848 15.7898C13.0976 15.231 14.3008 14.2454 15.1269 12.9702C15.9529 11.6951 16.3604 10.194 16.2928 8.67625C16.2251 7.15847 15.6855 5.69961 14.7493 4.50305C13.8131 3.30649 12.5269 2.43184 11.07 2.00103C9.61305 1.57022 8.058 1.60472 6.62161 2.09972C5.18522 2.59471 3.93906 3.52554 3.05683 4.76244C2.17461 5.99935 1.7003 7.48069 1.7 8.99998C1.69974 10.315 2.05469 11.6057 2.72736 12.7356C3.40002 13.8656 4.36542 14.7928 5.52155 15.4194L5.63917 15.4832L5.66701 15.3523L7.34101 7.48361L7.34102 7.48361L7.34133 7.48205C7.36176 7.3779 7.4027 7.27887 7.46177 7.1907C7.52085 7.10254 7.59688 7.02701 7.68543 6.96852C7.77398 6.91002 7.87328 6.86973 7.97755 6.84999C8.08183 6.83025 8.18899 6.83145 8.29279 6.85353C8.3966 6.8756 8.49497 6.91811 8.58219 6.97858C8.6694 7.03905 8.74371 7.11626 8.8008 7.20573C8.85788 7.2952 8.89659 7.39513 8.91467 7.4997C8.93276 7.60428 8.92985 7.71141 8.90612 7.81484L8.90578 7.81645C8.81078 8.26439 8.72208 8.60501 8.64839 8.888C8.62685 8.97072 8.60659 9.04851 8.58783 9.12261C8.50518 9.44916 8.4509 9.70682 8.4509 9.99C8.4509 10.8564 8.70317 11.3347 8.94744 11.5908L8.94747 11.5909C9.19809 11.8534 9.55554 11.9903 10.0069 11.9809ZM10.0069 11.9809L10.0053 11.8809M10.0069 11.9809C10.0071 11.9809 10.0072 11.9809 10.0074 11.9809L10.0053 11.8809M10.0053 11.8809C9.576 11.8899 9.2475 11.7603 9.0198 11.5218L12.6 9C12.6 9.9855 12.231 10.9053 11.3787 11.4417C10.9395 11.7189 10.4436 11.8737 10.0053 11.8809ZM0.1 9C0.1 4.08453 4.08453 0.1 9 0.1C13.9155 0.1 17.9 4.08453 17.9 9C17.9 13.9155 13.9155 17.9 9 17.9C4.08453 17.9 0.1 13.9155 0.1 9Z" fill="#009963" stroke="white" stroke-width="0.2"/>
</svg>
