<svg width="16" height="18" viewBox="0 0 16 18" fill="none" xmlns="http://www.w3.org/2000/svg">
<path d="M7.98755 9C10.1967 9 11.9875 7.20914 11.9875 5C11.9875 2.79086 10.1967 1 7.98755 1C5.77841 1 3.98755 2.79086 3.98755 5C3.98755 7.20914 5.77841 9 7.98755 9Z" stroke="white"/>
<path d="M11.9875 10.6H12.2691C12.854 10.6001 13.4187 10.8139 13.8571 11.201C14.2955 11.5881 14.5774 12.122 14.6499 12.7024L14.9627 15.2016C14.9909 15.4267 14.9708 15.6553 14.9039 15.8721C14.8369 16.0889 14.7246 16.2889 14.5744 16.459C14.4243 16.6291 14.2396 16.7653 14.0328 16.8585C13.826 16.9518 13.6016 17 13.3747 17H2.60035C2.37345 17 2.14914 16.9518 1.94231 16.8585C1.73547 16.7653 1.55083 16.6291 1.40065 16.459C1.25047 16.2889 1.13818 16.0889 1.07123 15.8721C1.00429 15.6553 0.984214 15.4267 1.01235 15.2016L1.32435 12.7024C1.39691 12.1218 1.67908 11.5876 2.11781 11.2005C2.55655 10.8133 3.12161 10.5998 3.70675 10.6H3.98755" stroke="white" stroke-linecap="round" stroke-linejoin="round"/>
</svg>
