<svg width="20" height="20" viewBox="0 0 20 20" fill="none" xmlns="http://www.w3.org/2000/svg">
<path d="M15.487 5.72C15.357 4.19 14.817 3.38 14.257 2.74M15.487 5.72C15.5237 6.12433 15.5351 6.52867 15.529 6.91749C15.5353 6.91617 15.5419 6.91478 15.5488 6.9133C15.572 6.90838 15.599 6.90267 15.6293 6.89673M15.487 5.72L15.5866 5.71153C15.5866 5.71144 15.5866 5.71134 15.5866 5.71124M15.487 5.72L15.5866 5.71095C15.5866 5.71104 15.5866 5.71114 15.5866 5.71124M14.257 2.74L15.847 10.98M14.257 2.74C13.927 2.37 12.617 1 10.137 1C7.65697 1 6.34697 2.37 6.01697 2.74C5.45697 3.38 4.91697 4.19 4.78697 5.72C4.75942 6.12403 4.74874 6.52806 4.74718 6.91661C4.71799 6.90911 4.68461 6.90129 4.64728 6.89375M14.257 2.74L4.64698 6.99581C4.64701 6.96192 4.64711 6.92789 4.64728 6.89375M15.6293 6.89673C15.6288 6.93097 15.6282 6.9651 15.6275 6.9991C15.7373 6.97687 15.8937 6.95 16.077 6.95C16.787 6.95 17.367 7.34 17.597 7.95M15.6293 6.89673C15.7406 6.87491 15.8967 6.85 16.077 6.85C16.825 6.85 17.4444 7.26249 17.6903 7.91416M15.6293 6.89673C15.6347 6.51184 15.623 6.11176 15.5866 5.71124M17.597 7.95C17.767 8.39 17.737 8.87 17.517 9.28M17.597 7.95L17.6905 7.91472C17.6905 7.91453 17.6904 7.91435 17.6903 7.91416M17.597 7.95L17.6903 7.91396C17.6903 7.91403 17.6903 7.91409 17.6903 7.91416M17.517 9.28C17.2618 9.76474 16.8476 10.0325 16.2743 10.4031C16.1734 10.4683 16.0677 10.5367 15.957 10.61C15.797 10.71 15.787 10.82 15.847 10.98M17.517 9.28L17.6051 9.32728C17.6051 9.32716 17.6052 9.32705 17.6053 9.32693C17.6053 9.32681 17.6054 9.32669 17.6055 9.32657L17.517 9.28ZM15.847 10.98L15.9406 10.9449C15.9402 10.9439 15.9399 10.9429 15.9395 10.9419C15.939 10.9409 15.9386 10.9399 15.9381 10.9389L15.847 10.98ZM17.6903 7.91416L1.31505 15.4695C0.922713 15.0664 0.807782 14.5768 0.973191 14.1353C1.0692 13.8731 1.28248 13.6759 1.54217 13.4965C1.70416 13.3846 1.89441 13.2733 2.09546 13.1556C2.21388 13.0863 2.33605 13.0149 2.45842 12.9398C3.12673 12.5296 3.86143 11.9784 4.33451 10.9417M15.5866 5.71124C15.4543 4.15554 14.9028 3.32624 14.3322 2.67415L14.3316 2.67344C13.9933 2.29412 12.6583 0.9 10.137 0.9C7.61563 0.9 6.28065 2.29412 5.94234 2.67344L5.94171 2.67415C5.37109 3.32628 4.81953 4.15565 4.68733 5.71153L4.68731 5.71153L4.6872 5.7132C4.66 6.1121 4.64916 6.51057 4.64728 6.89375M4.64728 6.89375C4.53228 6.87052 4.37981 6.85 4.19697 6.85C3.46026 6.85 2.82997 7.25135 2.58358 7.91422M2.58358 7.91422C2.40307 8.37168 2.43527 8.89197 2.66885 9.32728M2.58358 7.91422C2.58371 7.91389 2.58384 7.91356 2.58397 7.91323L2.67697 7.95L2.58321 7.91522C2.58334 7.91489 2.58346 7.91455 2.58358 7.91422ZM2.66885 9.32728C2.94435 9.84263 3.37484 10.12 3.94157 10.4851C4.04366 10.5509 4.15018 10.6195 4.26101 10.6929M2.66885 9.32728C2.66883 9.32723 2.6688 9.32719 2.66878 9.32714L2.75697 9.28L2.66885 9.32728ZM4.26101 10.6929C4.33078 10.741 4.35108 10.7756 4.35758 10.801C4.36467 10.8288 4.3615 10.8689 4.33451 10.9417M4.26101 10.6929C4.26078 10.6927 4.26055 10.6926 4.26032 10.6924L4.31697 10.61L4.26176 10.6934C4.26151 10.6932 4.26126 10.693 4.26101 10.6929ZM4.33451 10.9417C4.33499 10.9407 4.33548 10.9396 4.33596 10.9386L4.42697 10.98L4.33334 10.9449C4.33373 10.9438 4.33412 10.9428 4.33451 10.9417ZM3.16718 16.3904C3.16871 16.3914 3.17015 16.3923 3.1715 16.3932L3.22697 16.31L3.1634 16.3872C3.16466 16.3882 3.16592 16.3893 3.16718 16.3904ZM15.1633 16.4084L15.1324 16.4101C14.4275 16.4353 13.9407 16.5136 13.5508 16.6358C13.1599 16.7584 12.8714 16.9237 12.5641 17.1151C11.8577 17.5497 11.3108 17.745 10.913 17.8323C10.57 17.9076 10.3363 17.9033 10.1963 17.9008C10.1742 17.9004 10.1545 17.9 10.137 17.9C10.1196 17.9 10.1001 17.9004 10.0782 17.9008C9.93837 17.9033 9.70478 17.9076 9.36251 17.8312C8.96612 17.7427 8.42161 17.545 7.72008 17.1053L7.71984 17.1051C7.41238 16.9136 7.12636 16.7508 6.73669 16.6295C6.34805 16.5086 5.86123 16.4303 5.15122 16.4001L5.14975 16.4C4.96985 16.395 4.82761 16.3876 4.7153 16.3711C4.602 16.3544 4.53008 16.3298 4.48389 16.2978L4.48344 16.2975C4.4555 16.2784 4.43375 16.2506 4.41011 16.2035C4.39449 16.1723 4.38154 16.1407 4.36601 16.1028C4.35533 16.0767 4.34343 16.0477 4.3286 16.0137C4.25932 15.8551 4.15175 15.6572 3.9036 15.4354L3.90427 15.4347L3.89244 15.4268C3.6732 15.2806 3.37655 15.1767 3.09413 15.0778C3.0504 15.0625 3.007 15.0473 2.96428 15.0321C2.63384 14.9143 2.34532 14.7959 2.17952 14.6212L2.17954 14.6212L2.17768 14.6193C2.15672 14.5983 2.13627 14.5734 2.11824 14.5496C2.12623 14.543 2.13524 14.5358 2.14534 14.5281C2.1878 14.4955 2.24205 14.4585 2.30338 14.4192C2.42587 14.3408 2.57134 14.257 2.69583 14.1873L2.69584 14.1873L2.69777 14.1861C2.7157 14.1756 2.73386 14.1649 2.75224 14.154C3.53454 13.6934 4.72108 12.9946 5.44805 11.3913L5.44827 11.3914L5.45071 11.3848C5.58725 11.0172 5.59768 10.6786 5.50068 10.3849C5.40373 10.0913 5.20244 9.85149 4.9313 9.67604L4.93056 9.67557C4.35425 9.30974 4.07708 9.12296 3.92998 9.0036C3.8577 8.94495 3.82059 8.90551 3.79558 8.87196C3.77447 8.84362 3.76074 8.81831 3.74056 8.7811C3.73587 8.77246 3.73083 8.76317 3.72528 8.75306C3.6925 8.68906 3.67336 8.61896 3.66905 8.54718C3.66472 8.47502 3.67548 8.40276 3.70064 8.335C3.79596 8.08103 4.05962 8.05 4.18697 8.05C4.27178 8.05 4.30855 8.05094 4.4983 8.09716C4.61356 8.12523 4.78134 8.16908 5.04446 8.23783C5.22443 8.28486 5.44901 8.34354 5.7319 8.41681L5.85883 8.44968L5.85696 8.31857C5.85388 8.10269 5.8508 7.90954 5.84802 7.73486C5.83271 6.77392 5.8263 6.37185 5.87656 5.81905L5.87662 5.81837C5.98425 4.53655 6.43114 3.9358 6.83122 3.477C7.1064 3.18228 8.17097 2.08044 10.136 2.10001L10.138 2.1C12.1046 2.08043 13.1692 3.18427 13.4321 3.47634C13.8324 3.93522 14.2796 4.53593 14.3873 5.81837L14.3874 5.81905C14.4376 6.37185 14.4312 6.77393 14.4159 7.73487C14.4131 7.90955 14.4101 8.1027 14.407 8.31857L14.4051 8.44945L14.5319 8.41685C14.8624 8.33186 15.1133 8.2665 15.3064 8.21619C15.5233 8.15969 15.6674 8.12217 15.7695 8.09712C15.9582 8.05087 15.9924 8.05 16.077 8.05C16.2135 8.05 16.4679 8.08063 16.5633 8.33511L16.5633 8.33513L16.5645 8.33808C16.6234 8.48111 16.6137 8.62769 16.5412 8.74855L16.5412 8.74851L16.5393 8.75181C16.5344 8.76088 16.5298 8.76927 16.5255 8.77713C16.5044 8.81597 16.4904 8.84169 16.4688 8.87033C16.4439 8.90345 16.4069 8.94244 16.3349 9.00136C16.1886 9.12109 15.9135 9.31046 15.3423 9.68627C15.0713 9.86169 14.8702 10.1014 14.7733 10.3949C14.6763 10.6886 14.6867 11.0272 14.8232 11.3948L14.823 11.3949L14.8259 11.4013C15.5529 13.0046 16.7394 13.7034 17.5217 14.164C17.54 14.1748 17.558 14.1854 17.5759 14.196C17.6168 14.2205 17.6596 14.2458 17.7028 14.2714C17.7939 14.3253 17.8872 14.3805 17.9712 14.4334C18.0328 14.4722 18.087 14.5083 18.1295 14.5402C18.1404 14.5483 18.15 14.5559 18.1584 14.5627C18.1411 14.5855 18.121 14.6109 18.1022 14.6335C17.9362 14.8069 17.6465 14.9247 17.316 15.042C17.2749 15.0566 17.2332 15.0712 17.1912 15.0858C16.9064 15.1853 16.6074 15.2898 16.3907 15.4373L16.3903 15.4367L16.3811 15.4447C16.1276 15.6666 16.0196 15.865 15.9513 16.0244C15.9359 16.0604 15.9239 16.0906 15.9132 16.1175C15.8988 16.1537 15.8868 16.1839 15.8719 16.2145C15.849 16.2615 15.828 16.2887 15.8005 16.3075L15.8 16.3078C15.755 16.339 15.6844 16.3615 15.5697 16.3772C15.4627 16.3918 15.3302 16.3991 15.1633 16.4084Z" fill="#009963" stroke="#009963" stroke-width="0.2"/>
</svg>
