<svg width="24" height="20" viewBox="0 0 24 20" fill="none" xmlns="http://www.w3.org/2000/svg">
<path d="M23.069 1.01009C23.069 1.01009 21.0447 2.20583 19.9192 2.54489C19.315 1.85023 18.5121 1.35787 17.619 1.1344C16.7259 0.910937 15.7858 0.967149 14.9257 1.29543C14.0655 1.62372 13.327 2.20824 12.8099 2.96994C12.2929 3.73163 12.0222 4.63376 12.0345 5.55431V6.55744C10.2716 6.60316 8.52482 6.21218 6.94962 5.41933C5.37443 4.62648 4.01977 3.45638 3.00628 2.01323C3.00628 2.01323 -1.00628 11.0415 8.02197 15.054C5.95603 16.4564 3.49496 17.1595 1 17.0603C10.0282 22.076 21.0628 17.0603 21.0628 5.52421C21.0621 5.24467 21.0354 4.96713 20.9825 4.69161C22.0057 3.68245 23.069 1.01009 23.069 1.01009Z" stroke="#009963" stroke-width="1.5" stroke-linecap="round" stroke-linejoin="round"/>
</svg>
