<svg width="16" height="16" viewBox="0 0 16 16" fill="none" xmlns="http://www.w3.org/2000/svg">
<mask id="path-1-inside-1_234_13537" fill="white">
<path fill-rule="evenodd" clip-rule="evenodd" d="M14.9476 5.4226C14.5573 4.43369 13.9681 3.53547 13.2164 2.78363C12.4648 2.0318 11.5667 1.44237 10.5779 1.05189C10.3444 1.31694 10.1579 1.61999 10.0266 1.94791C10.9511 2.284 11.7907 2.81865 12.4863 3.51421C13.1818 4.20978 13.7165 5.04936 14.0526 5.97385C14.3805 5.84254 14.6835 5.65611 14.9486 5.4226M7.97858 1.55151L7.74218 1.54842C6.40507 1.54842 5.09844 1.94791 3.98994 2.69564C2.88144 3.44337 2.02161 4.50524 1.52077 5.74501C1.01994 6.98479 0.900927 8.34593 1.17902 9.6538C1.45711 10.9617 2.11961 12.1567 3.08153 13.0854C4.04346 14.0142 5.26093 14.6343 6.57776 14.8664C7.89458 15.0984 9.25071 14.9317 10.4722 14.3877C11.6936 13.8437 12.7247 12.9472 13.433 11.8131C14.1414 10.6791 14.4948 9.35923 14.4479 8.02294C14.803 7.91145 15.1389 7.76521 15.4555 7.58422C15.474 7.8065 15.4837 8.0312 15.4844 8.2583C15.4843 9.81829 15.0129 11.3419 14.1321 12.6294C13.2512 13.9169 12.002 14.9083 10.5481 15.4736C9.09412 16.039 7.5033 16.152 5.98407 15.7977C4.46483 15.4435 3.08805 14.6385 2.03412 13.4884C0.980189 12.3383 0.298284 10.8966 0.0777565 9.35228C-0.142771 7.80795 0.108367 6.23303 0.798261 4.83388C1.48816 3.43474 2.58462 2.27663 3.94399 1.51132C5.30335 0.746018 6.8622 0.409208 8.41627 0.545031C8.23459 0.864301 8.08752 1.20205 7.97754 1.55255"/>
</mask>
<path fill-rule="evenodd" clip-rule="evenodd" d="M14.9476 5.4226C14.5573 4.43369 13.9681 3.53547 13.2164 2.78363C12.4648 2.0318 11.5667 1.44237 10.5779 1.05189C10.3444 1.31694 10.1579 1.61999 10.0266 1.94791C10.9511 2.284 11.7907 2.81865 12.4863 3.51421C13.1818 4.20978 13.7165 5.04936 14.0526 5.97385C14.3805 5.84254 14.6835 5.65611 14.9486 5.4226M7.97858 1.55151L7.74218 1.54842C6.40507 1.54842 5.09844 1.94791 3.98994 2.69564C2.88144 3.44337 2.02161 4.50524 1.52077 5.74501C1.01994 6.98479 0.900927 8.34593 1.17902 9.6538C1.45711 10.9617 2.11961 12.1567 3.08153 13.0854C4.04346 14.0142 5.26093 14.6343 6.57776 14.8664C7.89458 15.0984 9.25071 14.9317 10.4722 14.3877C11.6936 13.8437 12.7247 12.9472 13.433 11.8131C14.1414 10.6791 14.4948 9.35923 14.4479 8.02294C14.803 7.91145 15.1389 7.76521 15.4555 7.58422C15.474 7.8065 15.4837 8.0312 15.4844 8.2583C15.4843 9.81829 15.0129 11.3419 14.1321 12.6294C13.2512 13.9169 12.002 14.9083 10.5481 15.4736C9.09412 16.039 7.5033 16.152 5.98407 15.7977C4.46483 15.4435 3.08805 14.6385 2.03412 13.4884C0.980189 12.3383 0.298284 10.8966 0.0777565 9.35228C-0.142771 7.80795 0.108367 6.23303 0.798261 4.83388C1.48816 3.43474 2.58462 2.27663 3.94399 1.51132C5.30335 0.746018 6.8622 0.409208 8.41627 0.545031C8.23459 0.864301 8.08752 1.20205 7.97754 1.55255" fill="black"/>
<path d="M10.5779 1.05189L10.6513 0.865865L10.5207 0.814267L10.4278 0.919678L10.5779 1.05189ZM10.0266 1.94791L9.84097 1.87357L9.7642 2.06531L9.95831 2.13588L10.0266 1.94791ZM14.0526 5.97385L13.8646 6.04218L13.9352 6.23629L14.1269 6.15951L14.0526 5.97385ZM7.74218 1.54842L7.7448 1.34842H7.74218V1.54842ZM14.4479 8.02294L14.388 7.83212L14.2427 7.87775L14.2481 8.02996L14.4479 8.02294ZM15.4555 7.58422L15.6548 7.56756L15.6286 7.25483L15.3562 7.41059L15.4555 7.58422ZM15.4844 8.2583L15.6844 8.25832L15.6844 8.2577L15.4844 8.2583ZM8.41627 0.545031L8.59009 0.643946L8.74431 0.372939L8.43368 0.345791L8.41627 0.545031ZM15.1336 5.34919C14.7333 4.33479 14.1289 3.41343 13.3579 2.64223L13.075 2.92504C13.8073 3.6575 14.3813 4.53258 14.7615 5.49602L15.1336 5.34919ZM13.3579 2.64223C12.5869 1.87102 11.6656 1.26641 10.6513 0.865865L10.5044 1.23791C11.4678 1.61833 12.3427 2.19257 13.075 2.92504L13.3579 2.64223ZM10.4278 0.919678C10.1792 1.20185 9.98075 1.52447 9.84097 1.87357L10.2123 2.02226C10.3351 1.71551 10.5095 1.43203 10.728 1.18409L10.4278 0.919678ZM9.95831 2.13588C10.8553 2.46198 11.67 2.98074 12.3448 3.65564L12.6277 3.37279C11.9115 2.65656 11.0469 2.10602 10.095 1.75995L9.95831 2.13588ZM12.3448 3.65564C13.0197 4.33053 13.5385 5.14516 13.8646 6.04218L14.2405 5.90551C13.8945 4.95356 13.3439 4.08903 12.6277 3.37279L12.3448 3.65564ZM14.1269 6.15951C14.476 6.01973 14.7986 5.82126 15.0808 5.57267L14.8164 5.27253C14.5685 5.49096 14.285 5.66535 13.9782 5.78818L14.1269 6.15951ZM7.9812 1.35153L7.7448 1.34843L7.73956 1.7484L7.97596 1.7515L7.9812 1.35153ZM7.74218 1.34842C6.36521 1.34842 5.01964 1.75982 3.8781 2.52983L4.10178 2.86144C5.17724 2.136 6.44492 1.74842 7.74218 1.74842V1.34842ZM3.8781 2.52983C2.73655 3.29985 1.8511 4.39337 1.33533 5.6701L1.70621 5.81993C2.19212 4.6171 3.02632 3.58689 4.10178 2.86144L3.8781 2.52983ZM1.33533 5.6701C0.819567 6.94683 0.697011 8.34854 0.983389 9.6954L1.37464 9.61221C1.10484 8.34331 1.2203 7.02275 1.70621 5.81993L1.33533 5.6701ZM0.983389 9.6954C1.26977 11.0423 1.95202 12.2728 2.94261 13.2293L3.22045 12.9415C2.2872 12.0405 1.64444 10.8811 1.37464 9.61221L0.983389 9.6954ZM2.94261 13.2293C3.93321 14.1857 5.18697 14.8244 6.54305 15.0633L6.61246 14.6694C5.33489 14.4443 4.1537 13.8426 3.22045 12.9415L2.94261 13.2293ZM6.54305 15.0633C7.89913 15.3023 9.29567 15.1307 10.5535 14.5704L10.3908 14.205C9.20575 14.7328 7.89004 14.8945 6.61246 14.6694L6.54305 15.0633ZM10.5535 14.5704C11.8114 14.0102 12.8732 13.0869 13.6027 11.9191L13.2634 11.7072C12.5761 12.8074 11.5758 13.6772 10.3908 14.205L10.5535 14.5704ZM13.6027 11.9191C14.3322 10.7512 14.6961 9.39205 14.6478 8.01593L14.2481 8.02996C14.2936 9.32642 13.9507 10.6069 13.2634 11.7072L13.6027 11.9191ZM14.5078 8.21376C14.8764 8.09806 15.2254 7.94611 15.5547 7.75784L15.3562 7.41059C15.0523 7.58431 14.7297 7.72485 14.388 7.83212L14.5078 8.21376ZM15.2561 7.60088C15.2743 7.81773 15.2837 8.03707 15.2844 8.25891L15.6844 8.2577C15.6837 8.02533 15.6738 7.79528 15.6548 7.56756L15.2561 7.60088ZM15.2844 8.25829C15.2843 9.77798 14.8251 11.2622 13.967 12.5164L14.2971 12.7423C15.2007 11.4215 15.6843 9.8586 15.6844 8.25832L15.2844 8.25829ZM13.967 12.5164C13.1089 13.7707 11.892 14.7365 10.4756 15.2872L10.6205 15.66C12.112 15.0801 13.3935 14.0631 14.2971 12.7423L13.967 12.5164ZM10.4756 15.2872C9.05919 15.838 7.50947 15.948 6.02948 15.6029L5.93865 15.9925C7.49713 16.3559 9.12904 16.24 10.6205 15.66L10.4756 15.2872ZM6.02948 15.6029C4.54949 15.2579 3.20827 14.4737 2.18157 13.3533L1.88666 13.6235C2.96782 14.8034 4.38017 15.6291 5.93865 15.9925L6.02948 15.6029ZM2.18157 13.3533C1.15487 12.2329 0.490579 10.8284 0.275748 9.324L-0.120235 9.38055C0.105989 10.9648 0.80551 12.4437 1.88666 13.6235L2.18157 13.3533ZM0.275748 9.324C0.0609174 7.81957 0.305567 6.28534 0.97764 4.92233L0.618882 4.74544C-0.0888341 6.18073 -0.346459 7.79633 -0.120235 9.38055L0.275748 9.324ZM0.97764 4.92233C1.64971 3.55933 2.71786 2.43114 4.04211 1.6856L3.84587 1.33705C2.45139 2.12212 1.3266 3.31014 0.618882 4.74544L0.97764 4.92233ZM4.04211 1.6856C5.36635 0.940066 6.88493 0.611958 8.39885 0.744272L8.43368 0.345791C6.83947 0.206459 5.24035 0.551969 3.84587 1.33705L4.04211 1.6856ZM8.24244 0.446117C8.05372 0.777758 7.90095 1.1286 7.78672 1.49267L8.16837 1.61242C8.27408 1.27551 8.41546 0.950844 8.59009 0.643946L8.24244 0.446117Z" fill="white" mask="url(#path-1-inside-1_234_13537)"/>
<path d="M12.9036 6.19374C14.614 6.19374 16.0005 4.80722 16.0005 3.09687C16.0005 1.38652 14.614 0 12.9036 0C11.1933 0 9.80676 1.38652 9.80676 3.09687C9.80676 4.80722 11.1933 6.19374 12.9036 6.19374Z" fill="black"/>
</svg>
