<svg width="18" height="19" viewBox="0 0 18 19" fill="none" xmlns="http://www.w3.org/2000/svg">
<path d="M2.1512 6.74275L2.15182 6.74213L5.03899 3.8386C5.39701 3.49241 5.87557 3.29886 6.37364 3.29886C6.87177 3.29886 7.35038 3.49246 7.70842 3.83874C7.80058 3.93099 7.88293 4.02881 7.94928 4.13202L8.04992 4.28858L8.18152 4.15698L10.2345 2.10398C10.2346 2.10388 10.2347 2.10378 10.2348 2.10368C10.4364 1.90461 10.6798 1.7529 10.9473 1.65955C11.215 1.56616 11.5 1.53353 11.7819 1.56404C12.0637 1.59455 12.3352 1.68742 12.5766 1.83593C12.8181 1.98443 13.0235 2.18483 13.1778 2.42259L13.2621 2.55233L13.3891 2.46415C14.1331 1.94791 15.1567 2.01706 15.8158 2.67607C16.3839 3.24425 16.5142 4.07893 16.225 4.7791L16.1773 4.89448L16.2821 4.9623C16.4174 5.04978 16.559 5.15538 16.6598 5.27059L16.6595 5.27088L16.6677 5.27895C17.4262 6.02226 17.4254 7.2261 16.6683 7.96051L16.6682 7.96042L16.6639 7.96494L16.3612 8.28403L16.2365 8.41547L16.3889 8.51345C16.493 8.58036 16.5871 8.66066 16.6575 8.74512L16.6623 8.75093L16.6677 8.75622C17.4262 9.49953 17.4254 10.7034 16.6683 11.4378L16.6667 11.4394L11.7576 16.3485L11.7573 16.3488C9.1083 19.0138 4.81783 18.9988 2.1512 16.3482C-0.51434 13.6986 -0.51434 9.39228 2.1512 6.74275ZM5.98121 4.78757L5.98106 4.78772L3.09302 7.68393C0.956264 9.82069 0.956264 13.2784 3.09302 15.4152C5.22979 17.5519 8.68749 17.5519 10.8242 15.4152L10.8243 15.4151L15.7333 10.4979C15.7334 10.4979 15.7334 10.4978 15.7334 10.4978C15.9556 10.2756 15.9555 9.92703 15.7333 9.70484C15.5111 9.48263 15.1625 9.48263 14.9403 9.70484L12.1504 12.4948L11.2082 11.5459L15.7332 7.02889L15.7333 7.02879C15.9556 6.80658 15.9556 6.45797 15.7333 6.23575C15.5111 6.01354 15.1625 6.01354 14.9403 6.23575L10.9964 10.1797L10.0549 9.23818L14.8661 4.42698C15.0883 4.20476 15.0883 3.85615 14.8661 3.63393C14.6439 3.41172 14.2952 3.41172 14.073 3.63393L9.26182 8.44514L8.3202 7.50352L11.9686 3.84721C12.2076 3.61797 12.1756 3.26964 11.9724 3.05578C11.7563 2.82834 11.4055 2.83236 11.1848 3.05302L6.0303 8.20757L5.96089 8.27698L5.9967 8.36836C6.27639 9.0821 6.34185 9.86191 6.18505 10.6123C6.0385 11.3136 5.70374 11.9608 5.21799 12.4849L4.27538 11.5423C4.6986 11.0668 4.9342 10.451 4.9342 9.81091C4.9342 9.17084 4.6986 8.55504 4.27538 8.07948L6.77425 5.58061C6.99646 5.3584 6.99646 5.00979 6.77425 4.78757C6.55203 4.56536 6.20342 4.56536 5.98121 4.78757ZM17.8477 13.7409C17.7698 16.2472 15.7472 18.2698 13.2409 18.3477V17.4199C15.2489 17.3439 16.8439 15.7489 16.9199 13.7409H17.8477ZM0.152327 5.25909C0.230205 2.75277 2.25277 0.730205 4.75909 0.652327V1.5801C2.75107 1.65606 1.15606 3.25107 1.0801 5.25909H0.152327Z" fill="black" stroke="white" stroke-width="0.3"/>
</svg>
