<svg width="10" height="10" viewBox="0 0 10 10" fill="none" xmlns="http://www.w3.org/2000/svg">
<path d="M9.20498 4.95999C9.20707 4.40543 9.09906 3.85598 8.8872 3.34348C8.67533 2.83094 8.36382 2.36557 7.97072 1.97434C7.17694 1.17554 6.11648 0.735025 4.98999 0.735025C2.66476 0.735025 0.769998 2.62979 0.769998 4.95501L0.769998 4.95507C0.770471 5.74846 0.994068 6.52573 1.41525 7.19809L1.41524 7.1981L1.41597 7.19922L1.49177 7.31672L1.08853 8.79366L1.04291 8.96074L1.21042 8.91672L2.72967 8.51743L2.84354 8.58576L2.84414 8.58611C3.49442 8.97013 4.23696 9.175 4.99499 9.175C7.31983 9.175 9.215 7.28561 9.20498 4.95999ZM9.20498 4.95999C9.20498 4.96013 9.20498 4.96026 9.20498 4.9604L9.10498 4.96001M9.20498 4.95999C9.20498 4.95985 9.20498 4.95971 9.20498 4.95957L9.10498 4.96001M9.10498 4.96001C9.11498 7.23001 7.26498 9.075 4.99499 9.075C4.25499 9.075 3.52999 8.875 2.89499 8.5L0.869998 4.95501C0.869998 2.68502 2.71999 0.835025 4.98999 0.835025C6.08998 0.835025 7.12498 1.26502 7.89998 2.04502C8.28379 2.42695 8.58794 2.88129 8.79479 3.38168C9.00164 3.88207 9.10707 4.41856 9.10498 4.96001ZM8.42892 1.52539L8.42927 1.52573C9.34546 2.44193 9.84997 3.66147 9.84997 4.96001C9.84997 7.63478 7.66975 9.815 4.99499 9.815C4.18185 9.815 3.38329 9.60926 2.67284 9.22219L2.63797 9.20319L2.59957 9.21329L0.14197 9.85928L0.796483 7.45629L0.807386 7.41626L0.786751 7.38027C0.365347 6.64526 0.14 5.81239 0.14 4.95501C0.14 2.28025 2.32022 0.100027 4.99499 0.100027L4.99532 0.100026C5.63359 0.0979118 6.2659 0.222852 6.8554 0.467565C7.4449 0.712279 7.9798 1.07187 8.42892 1.52539ZM3.69774 4.73887L3.6977 4.7389L3.69924 4.74146C3.77493 4.86762 4.02637 5.28389 4.40843 5.62464C4.82366 5.99569 5.18987 6.15274 5.35968 6.22556C5.38678 6.23719 5.40888 6.24666 5.42538 6.25452C5.49406 6.29005 5.56513 6.31394 5.63713 6.3056C5.71378 6.29671 5.77119 6.25402 5.81617 6.1998C5.88694 6.11882 6.12316 5.8376 6.21209 5.70711C6.24339 5.66316 6.2616 5.66031 6.26978 5.6594C6.28845 5.65733 6.31544 5.66311 6.37451 5.68355C6.45872 5.71854 6.81272 5.89101 7.03995 6.00172C7.11684 6.03918 7.17921 6.06956 7.21171 6.08516C7.24056 6.09901 7.26464 6.11009 7.28559 6.11973C7.31472 6.13313 7.3378 6.14375 7.35925 6.15516C7.38838 6.17067 7.39907 6.18023 7.40369 6.18602C7.40418 6.18812 7.40703 6.19772 7.409 6.21889C7.41161 6.24692 7.41184 6.28568 7.40783 6.33353C7.39983 6.42898 7.37551 6.5541 7.32595 6.69096L7.32594 6.69096L7.32544 6.69241C7.28684 6.80435 7.16254 6.92761 7.00091 7.03152C6.8419 7.13373 6.67195 7.20118 6.57086 7.21601C6.36281 7.24502 6.11004 7.25819 5.83564 7.16982L5.83564 7.16981L5.83421 7.16937C5.65633 7.11502 5.4304 7.04134 5.14031 6.9135L5.1396 6.91319C3.983 6.41417 3.20094 5.2731 3.0793 5.09562C3.07367 5.08742 3.06946 5.08127 3.06669 5.07735L3.06672 5.07732L3.06499 5.07501L3.06404 5.07374C3.03346 5.03298 2.91271 4.87202 2.79915 4.64847C2.68363 4.42109 2.57999 4.13749 2.57999 3.85502C2.57999 3.33142 2.82946 3.05736 2.95555 2.91883C2.96606 2.90729 2.9757 2.8967 2.98428 2.88697C3.07719 2.78642 3.17842 2.76502 3.23999 2.76502H3.47677C3.49648 2.76625 3.51043 2.76638 3.52121 2.76648C3.54213 2.76668 3.55116 2.76677 3.5673 2.77453C3.58419 2.78264 3.6222 2.80958 3.66742 2.91785C3.76649 3.1655 4.01817 3.77998 4.05055 3.84474C4.07343 3.8905 4.08106 3.92592 4.05995 3.97148C4.0569 3.9776 4.05396 3.9835 4.05111 3.98921C4.01612 4.05947 3.99563 4.10061 3.94906 4.15494C3.92687 4.18083 3.90503 4.20725 3.88385 4.23287C3.84237 4.28305 3.80341 4.33017 3.76928 4.3643L3.76754 4.36605C3.73728 4.39629 3.69043 4.44312 3.66776 4.5062C3.64141 4.5795 3.65207 4.65732 3.69774 4.73887Z" fill="black" stroke="#FDDA81" stroke-width="0.2"/>
</svg>
