<svg width="18" height="18" viewBox="0 0 18 18" fill="none" xmlns="http://www.w3.org/2000/svg">
<path d="M14.3087 3.61033L14.3087 3.61033C15.0068 4.3086 15.5604 5.13774 15.9376 6.05026C16.3148 6.96278 16.5083 7.94075 16.507 8.92816M14.3087 3.61033L16.407 8.92803M14.3087 3.61033C12.8861 2.18776 11.0067 1.40304 8.99998 1.40304C4.84964 1.40304 1.48412 4.77788 1.475 8.9188L1.475 8.91887C1.47287 10.3325 1.87139 11.7178 2.62436 12.9143M14.3087 3.61033L2.62436 12.9143M16.507 8.92816L16.407 8.92803M16.507 8.92816C16.507 8.92811 16.507 8.92807 16.507 8.92803H16.407M16.507 8.92816C16.5069 13.0695 13.132 16.435 8.99098 16.435C7.64191 16.435 6.31939 16.0796 5.16951 15.3863M16.407 8.92803C16.407 13.014 13.077 16.335 8.99098 16.335C7.65898 16.335 6.35398 15.984 5.21999 15.3M5.16951 15.3863L5.17069 15.387L5.21999 15.3M5.16951 15.3863C5.16912 15.3861 5.16873 15.3859 5.16834 15.3856L5.21999 15.3M5.16951 15.3863L5.21999 15.3M2.14199 15.885L2.17241 15.7736L2.11658 15.7883L2.14199 15.885ZM2.14199 15.885L2.23846 15.9113L2.25367 15.8557L2.14199 15.885ZM2.62436 12.9143L2.62419 12.914L2.70899 12.861L2.62436 12.9143ZM8.99098 0.100049L8.99131 0.100048C10.1508 0.0962066 11.2995 0.323177 12.3704 0.767731C13.4413 1.21229 14.413 1.86553 15.2289 2.68941L15.2292 2.68975C16.8934 4.35395 17.81 6.56949 17.81 8.92803C17.81 13.7868 13.8497 17.747 8.99098 17.747C7.51384 17.747 6.06328 17.3733 4.77283 16.6702L4.73797 16.6512L4.69957 16.6613L0.14197 17.8593L1.35648 13.4003L1.36738 13.3603L1.34675 13.3243C0.581346 11.9893 0.172 10.4764 0.172 8.91902C0.172 4.06027 4.13222 0.100049 8.99098 0.100049ZM4.93607 15.2541L4.97541 15.2437L4.94999 15.147L4.90069 15.234L4.93607 15.2541ZM2.781 13.1649L2.80419 13.202L2.88899 13.149L2.79252 13.1227L2.781 13.1649ZM9.22159 12.5091L9.2216 12.5091L9.21914 12.508C7.21795 11.6561 5.84979 9.7569 5.50622 9.27998C5.4733 9.23428 5.44979 9.20164 5.43602 9.18423C5.42643 9.16966 5.41256 9.14959 5.39515 9.12441C5.30717 8.99716 5.12889 8.73931 4.95706 8.4002C4.74759 7.9868 4.55499 7.46546 4.55499 6.93903C4.55499 5.97474 5.02864 5.45487 5.25939 5.20162C5.27891 5.18019 5.29669 5.16068 5.3123 5.14296C5.4969 4.94279 5.71083 4.89704 5.83198 4.89704C5.9067 4.89704 5.97949 4.89923 6.05044 4.90149L6.06131 4.90183C6.12681 4.90392 6.19123 4.90597 6.25191 4.90603C6.27773 4.90757 6.29974 4.90787 6.31936 4.90813C6.37054 4.90883 6.40552 4.90931 6.44971 4.93082C6.50375 4.95713 6.58094 5.02572 6.66668 5.2315L6.66667 5.2315L6.66707 5.23243C6.74734 5.41973 6.87502 5.72962 6.99961 6.03201C7.02114 6.08425 7.04258 6.13627 7.06366 6.1874C7.13509 6.36063 7.20243 6.52349 7.25531 6.64929C7.30574 6.76923 7.34595 6.86269 7.36318 6.89503C7.40965 6.98838 7.43277 7.0794 7.37998 7.19243C7.3666 7.2192 7.3547 7.2438 7.34357 7.26678C7.29219 7.37293 7.25752 7.44457 7.1717 7.53698L7.16623 7.54287L7.16178 7.54956C7.07724 7.67637 6.93919 7.83222 6.84275 7.92883C6.78514 7.98186 6.71935 8.05382 6.68676 8.15009C6.6523 8.2519 6.65932 8.36731 6.72354 8.49575L6.72328 8.49588L6.72723 8.50248C6.86292 8.72863 7.31036 9.4689 7.98842 10.0737C8.70708 10.7158 9.34175 10.9904 9.66102 11.1284C9.72337 11.1554 9.77368 11.1772 9.81025 11.1955C9.92482 11.2527 10.0322 11.2856 10.1372 11.2715C10.2455 11.257 10.3309 11.1954 10.407 11.1092L10.4072 11.1089C10.5306 10.9679 10.9637 10.4631 11.1153 10.2284C11.1903 10.1348 11.2421 10.1121 11.2838 10.1074C11.3357 10.1014 11.3964 10.1187 11.5044 10.1562C11.598 10.1904 11.9153 10.34 12.2445 10.5006C12.5724 10.6607 12.9005 10.8259 13.0101 10.8873L13.0099 10.8877L13.0187 10.8916C13.0474 10.9042 13.0743 10.9159 13.0997 10.9269C13.1765 10.9603 13.2385 10.9873 13.2899 11.0138C13.353 11.0463 13.3864 11.0717 13.4046 11.0945C13.4049 11.0952 13.4052 11.0961 13.4055 11.097C13.407 11.1016 13.4088 11.108 13.4106 11.1165C13.4142 11.1335 13.4174 11.1561 13.4195 11.1846C13.4237 11.2415 13.4231 11.3167 13.415 11.4064C13.3989 11.5858 13.3535 11.8182 13.2619 12.071C13.1789 12.3002 12.9346 12.5349 12.6414 12.7241C12.3504 12.9119 12.0357 13.0392 11.8388 13.068C11.4587 13.121 10.99 13.1462 10.4796 12.9818L10.4782 12.9814C10.1564 12.8831 9.74704 12.7495 9.22159 12.5091Z" fill="#009963" stroke="#009963" stroke-width="0.2"/>
</svg>
