<svg width="16" height="16" viewBox="0 0 16 16" fill="none" xmlns="http://www.w3.org/2000/svg">
<path d="M14.741 7.936C14.7443 7.0565 14.5722 6.1851 14.2345 5.37233C13.8968 4.55951 13.4003 3.82153 12.7738 3.20117C11.5088 1.93443 9.81905 1.23604 8.02388 1.23604C4.31887 1.23604 1.29875 4.24033 1.29875 7.92802V7.92808C1.29951 9.18636 1.6559 10.419 2.32719 11.4853L2.32718 11.4853L2.32791 11.4864L2.46432 11.6968L1.80885 14.0855L1.76302 14.2526L1.93058 14.2088L4.39856 13.5634L4.60377 13.6859L4.60437 13.6862C5.64073 14.2952 6.82404 14.62 8.03192 14.62C11.7365 14.62 14.7571 11.6241 14.741 7.936ZM14.741 7.936C14.741 7.93613 14.741 7.93627 14.741 7.93641L14.641 7.93602M14.741 7.936C14.741 7.93586 14.741 7.93572 14.741 7.93558L14.641 7.93602M14.641 7.93602C14.657 11.568 11.6822 14.52 8.03192 14.52C6.84197 14.52 5.67614 14.2 4.65503 13.6L1.39875 7.92802C1.39875 4.29603 4.37362 1.33604 8.02388 1.33604C9.79272 1.33604 11.457 2.02404 12.7033 3.27203C13.3205 3.88312 13.8095 4.61006 14.1422 5.41069C14.4748 6.21132 14.6443 7.06969 14.641 7.93602ZM10.5887 11.704C10.9746 11.648 11.7706 11.224 11.9314 10.76C12.1003 10.296 12.1003 9.90402 12.044 9.81602C11.9988 9.74542 11.9123 9.70572 11.7761 9.64322C11.7425 9.6278 11.7058 9.61101 11.6661 9.59202C11.6169 9.56851 11.5209 9.52197 11.4014 9.46403C11.0329 9.28539 10.4409 8.99839 10.3073 8.94402M10.5887 11.704L10.5749 11.605C10.5748 11.605 10.5747 11.605 10.5746 11.605M10.5887 11.704C10.243 11.752 9.8088 11.776 9.33443 11.624L7.19573 8.88002C7.84195 9.4546 8.40588 9.69581 8.68145 9.81368C8.72816 9.83366 8.7666 9.8501 8.79573 9.86402M10.5887 11.704L10.5743 11.605C10.5744 11.605 10.5745 11.605 10.5746 11.605M10.5746 11.605C10.7487 11.5797 11.0305 11.4672 11.2906 11.3008C11.5534 11.1327 11.768 10.9261 11.8369 10.7273L11.8374 10.7258C11.9189 10.502 11.9592 10.2967 11.9725 10.1386C11.9791 10.0595 11.9789 9.99384 11.9743 9.94471C11.972 9.92013 11.9687 9.90108 11.9653 9.88727C11.962 9.87447 11.9595 9.86957 11.9595 9.86954C11.9595 9.86954 11.9596 9.86966 11.9597 9.8699C11.9458 9.84805 11.9203 9.826 11.8625 9.79539C11.8268 9.7765 11.7871 9.75829 11.7385 9.73603C11.7048 9.72058 11.6668 9.70318 11.623 9.68225C11.5719 9.65785 11.4732 9.61002 11.3511 9.55083C10.9845 9.37312 10.4068 9.09304 10.272 9.03763M10.5746 11.605C10.2358 11.652 9.81877 11.6742 9.36495 11.5288L9.36352 11.5283C9.07619 11.441 8.71039 11.3223 8.24092 11.1164L8.24021 11.1161C6.36277 10.3102 5.09611 8.47002 4.90138 8.18712C4.8924 8.17407 4.88569 8.16433 4.88132 8.15816L4.88135 8.15814L4.87961 8.15583L4.87807 8.15378C4.82825 8.0877 4.6316 7.82687 4.44661 7.46455C4.25891 7.09692 4.0877 6.63338 4.0877 6.16803C4.0877 5.30693 4.50259 4.85359 4.70688 4.63036C4.72394 4.61172 4.73953 4.59468 4.75329 4.57914C4.91609 4.40353 5.0964 4.36403 5.20981 4.36403H5.59253C5.61573 4.36548 5.63518 4.36574 5.65238 4.36598C5.69546 4.36656 5.72438 4.36695 5.76265 4.38525C5.8088 4.40732 5.87791 4.46581 5.95348 4.64601C6.11334 5.04365 6.51705 6.02416 6.56769 6.12493C6.60878 6.2067 6.6284 6.28387 6.5832 6.38026C6.57803 6.39055 6.57306 6.40049 6.56823 6.41014C6.51227 6.522 6.47624 6.59403 6.39635 6.68676C6.36255 6.726 6.32842 6.76706 6.2948 6.80752C6.22684 6.88929 6.16096 6.96855 6.1041 7.02514L6.10387 7.02536C6.054 7.07498 5.98681 7.14183 5.95495 7.23005C5.91975 7.32752 5.93202 7.43398 5.99904 7.55307L5.999 7.55309L6.00055 7.55566C6.12185 7.75682 6.52226 8.41604 7.12929 8.95475C7.78889 9.54123 8.36832 9.78871 8.64239 9.90577C8.68715 9.92489 8.72377 9.94053 8.75126 9.9536M10.272 9.03763C10.2729 9.03792 10.2737 9.03822 10.2746 9.03852L10.3073 8.94402M10.272 9.03763C10.2712 9.03729 10.2704 9.03696 10.2696 9.03664L10.3073 8.94402M10.272 9.03763C10.1777 9.00508 10.1211 8.99033 10.0751 8.99541C10.0394 8.99936 9.99615 9.01731 9.93906 9.09723M10.3073 8.94402C10.1224 8.88002 9.99372 8.84802 9.85704 9.04002M9.85704 9.04002L9.9396 9.09644C9.93942 9.09671 9.93924 9.09697 9.93906 9.09723M9.85704 9.04002C9.72036 9.24002 9.34247 9.68802 9.22991 9.81602M9.85704 9.04002L9.93851 9.09801C9.93869 9.09775 9.93888 9.09749 9.93906 9.09723M9.93906 9.09723C9.79846 9.3027 9.4193 9.75197 9.30594 9.88098M9.22991 9.81602L9.30694 9.87978C9.30661 9.88018 9.30628 9.88058 9.30594 9.88098M9.22991 9.81602C9.11734 9.95202 8.99674 9.96802 8.79573 9.86402M9.22991 9.81602L9.305 9.88206C9.30531 9.8817 9.30563 9.88134 9.30594 9.88098M9.30594 9.88098C9.23966 9.96067 9.16022 10.0175 9.05745 10.0294C8.9593 10.0407 8.85788 10.0086 8.75126 9.9536M8.79573 9.86402L8.75264 9.95425C8.75218 9.95404 8.75172 9.95382 8.75126 9.9536M8.79573 9.86402L8.74978 9.95283C8.75027 9.95309 8.75076 9.95334 8.75126 9.9536M13.5972 2.39858L13.5976 2.39892C15.0822 3.87616 15.8998 5.84265 15.8998 7.93602C15.8998 12.2483 12.3671 15.764 8.03192 15.764C6.71401 15.764 5.41983 15.4322 4.26852 14.8081L4.23378 14.7893L4.19556 14.7993L0.141907 15.8595L1.22184 11.9144L1.23284 11.8742L1.21203 11.8381C0.529223 10.6531 0.164078 9.3103 0.164078 7.92802C0.164078 3.61573 3.69672 0.100043 8.03192 0.100044L8.03225 0.100043C9.06675 0.0966324 10.0916 0.298122 11.047 0.692758C12.0024 1.08739 12.8693 1.66727 13.5972 2.39858Z" fill="black" stroke="white" stroke-width="0.2"/>
</svg>
