<svg width="18" height="18" viewBox="0 0 18 18" fill="none" xmlns="http://www.w3.org/2000/svg">
<path d="M9.29429 0C4.49397 0 0.588783 4.03754 0.588783 9.0001C0.588783 10.5185 0.961868 12.0151 1.66919 13.3412L0.0296437 17.4421C-0.0273635 17.5846 -0.00081205 17.7479 0.0977792 17.8634C0.172943 17.9516 0.280124 18 0.390625 18C0.424985 18 0.459736 17.9954 0.493706 17.9857L4.8655 16.748C6.20419 17.5677 7.73167 18 9.29449 18C14.0946 18 18 13.9627 18 8.9999C18 4.03714 14.0944 0 9.29429 0ZM9.29429 17.1929C7.81953 17.1929 6.37931 16.77 5.12964 15.9699C5.06736 15.93 4.99611 15.9094 4.92407 15.9094C4.88951 15.9094 4.85495 15.914 4.82098 15.9237L1.05558 16.9896L2.46358 13.4678C2.51004 13.3515 2.50145 13.2195 2.44035 13.1107C1.73986 11.865 1.3697 10.4436 1.3697 9.0001C1.3697 4.48259 4.92465 0.807347 9.29429 0.807347C13.6639 0.807347 17.2189 4.48259 17.2189 9.0001C17.2189 13.5176 13.6639 17.1929 9.29429 17.1929Z" fill="black"/>
<path d="M12.9901 10.9149L11.102 9.89506C10.9708 9.82422 10.8121 9.83613 10.6922 9.92594L9.10029 11.1178C8.2073 10.4324 7.6714 9.82038 7.66164 9.80928C7.65578 9.80242 7.64856 9.79737 7.64231 9.79112C7.63665 9.78526 7.63216 9.7786 7.62591 9.77315C7.6183 9.76629 7.25243 9.43245 6.78935 8.79384L7.96873 7.11012C8.05542 6.98619 8.06713 6.8221 7.99841 6.68647L7.01211 4.7347C6.91254 4.53751 6.67768 4.46101 6.48713 4.56294L4.73982 5.49502C4.57212 5.58444 4.49032 5.78506 4.54537 5.97156C5.35206 8.70362 6.90883 10.194 7.09547 10.3655C7.29616 10.5934 9.14285 12.6285 11.7937 13.4652C11.8316 13.4771 11.8698 13.4827 11.9077 13.4827C12.0506 13.4827 12.1863 13.4012 12.2546 13.2641L13.1564 11.4579C13.2548 11.2605 13.1806 11.0177 12.9901 10.9149ZM5.39208 6.05512L6.49963 5.46434L7.19425 6.83885L6.32158 8.08479C5.99261 7.53579 5.65779 6.85702 5.39208 6.05512ZM11.7131 12.5882C10.996 12.3278 10.3441 11.973 9.78262 11.6036L10.9544 10.7262L12.2841 11.4444L11.7131 12.5882Z" fill="black"/>
</svg>
